<svg xmlns="http://www.w3.org/2000/svg" width="36.614" height="36.615" viewBox="0 0 36.614 36.615"><path d="M52.239,34.737A17.508,17.508,0,1,1,34.732,17.229,17.509,17.509,0,0,1,52.239,34.737" transform="translate(-16.424 -16.428)" fill="#fff" fill-rule="evenodd"/><path d="M33.055,51.364A18.307,18.307,0,1,1,51.362,33.057,18.327,18.327,0,0,1,33.055,51.364m0-35.015A16.708,16.708,0,1,0,49.763,33.057,16.727,16.727,0,0,0,33.055,16.349" transform="translate(-14.748 -14.749)" fill="#12391a"/><rect width="36.614" height="36.614" fill="none"/><g transform="translate(9.165 9.167)"><path d="M58.024,58.92a7.136,7.136,0,0,1-5.063-2.094h0a7.167,7.167,0,0,1,0-10.125c3.938-3.938,12.737-3.567,13.107-3.55a.6.6,0,0,1,.568.568c.018.373.389,9.169-3.549,13.107A7.137,7.137,0,0,1,58.024,58.92Z" transform="translate(-48.368 -43.135)" fill="#1d3f1c"/><g transform="translate(4.593 0.191)"><path d="M62.415,59.32a7.137,7.137,0,0,0,5.063-2.094c3.938-3.938,3.567-12.735,3.549-13.107a.594.594,0,0,0-.174-.394l-13.5,13.5A7.136,7.136,0,0,0,62.415,59.32Z" transform="translate(-57.352 -43.725)" fill="#2a5927"/><path d="M74.393,57.742a.6.6,0,0,1-.6-.6V52.927a.6.6,0,1,1,1.193,0v4.219A.6.6,0,0,1,74.393,57.742Z" transform="translate(-68.486 -49.551)" fill="#2a5927"/></g><path d="M78.612,66.589H74.393a.6.6,0,1,1,0-1.193h4.219a.6.6,0,1,1,0,1.193Z" transform="translate(-63.893 -58.207)" fill="#1d3f1c"/><path d="M62.634,69.5a.6.6,0,0,1-.6-.6V64.685a.6.6,0,0,1,1.193,0V68.9A.6.6,0,0,1,62.634,69.5Z" transform="translate(-55.931 -57.322)" fill="#2a5927"/><path d="M66.853,78.347H62.634a.6.6,0,1,1,0-1.193h4.219a.6.6,0,1,1,0,1.193Z" transform="translate(-55.931 -66.169)" fill="#1d3f1c"/><path d="M43.726,68.53a.6.6,0,0,1-.422-1.018L57,53.812a.6.6,0,0,1,.844.844l-13.7,13.7A.6.6,0,0,1,43.726,68.53Z" transform="translate(-43.129 -50.246)" fill="#2a5927"/><path d="M44.093,68.9a.6.6,0,0,0,.422-.175l13.7-13.7a.6.6,0,0,0,0-.844h0L43.671,68.722A.6.6,0,0,0,44.093,68.9Z" transform="translate(-43.496 -50.612)" fill="#1d3f1c"/></g></svg>