<svg xmlns="http://www.w3.org/2000/svg" xmlns:xlink="http://www.w3.org/1999/xlink" width="26" height="26" viewBox="0 0 26 26"><defs><clipPath id="a"><ellipse cx="11.927" cy="11.927" rx="11.927" ry="11.927" fill="none"/></clipPath></defs><circle cx="13" cy="13" r="13" fill="#fff"/><g transform="translate(1 1)"><g transform="translate(0)" clip-path="url(#a)"><g transform="translate(-7.901 -1.278)"><g transform="translate(0)"><rect width="39.506" height="26.41" fill="#fff"/></g><path d="M-58.183,308.13h17.944v14.176H-58.183V308.13Zm2.283,1.089h-.627l-.179-.545-.179.545h-.627l.493.365-.179.634.493-.409.493.364-.179-.59.493-.365ZM-41.088,320.9h-.582l-.224-.546-.179.546h-.581l.493.363-.225.637.493-.41.493.41-.179-.637.493-.363Zm-2.953,0h-.627l-.179-.546-.179.546h-.626l.491.363-.179.637.493-.41.493.41-.179-.637.493-.363Zm-3,0h-.581l-.179-.546-.179.546h-.627l.493.363-.224.637.537-.41.491.41-.179-.637.448-.363Zm-2.953,0h-.582l-.179-.546-.222.546h-.582l.493.363-.224.637.536-.41.493.41-.222-.637.491-.363Zm-2.953,0h-.582l-.224-.546-.178.546h-.582l.493.363-.225.637.493-.41.493.41-.179-.637.493-.363Zm-2.953,0h-.627l-.179-.546-.179.546h-.627l.493.363-.179.637.493-.41.493.41-.179-.637.493-.363Zm13.246-1.455h-.582l-.179-.545-.179.545h-.626l.491.364-.222.637.536-.41.493.364-.224-.591.493-.364Zm-2.953,0h-.582l-.224-.545-.179.545h-.582l.493.364-.224.637.493-.41.493.364-.181-.591.494-.364Zm-2.955,0h-.627l-.178-.545-.179.545h-.627l.493.364-.179.637.493-.41.491.364-.179-.591.493-.364Zm-2.953,0h-.626l-.181-.545-.178.545h-.627l.491.364-.179.637.493-.41.493.364-.179-.591.493-.364Zm-3,0H-55.1l-.179-.545-.179.545h-.627l.493.364-.224.637.537-.41.493.364-.224-.591.493-.364Zm11.859-2.907h-.582l-.179-.545-.179.545h-.626l.491.364-.222.589.536-.363.493.363-.224-.589.493-.364Zm-2.953,0h-.582l-.224-.545-.179.545h-.582l.493.364-.224.589.493-.363.493.363-.181-.589.494-.364Zm-2.955,0h-.627l-.178-.545-.179.545h-.627l.493.364-.179.589.493-.363.491.363-.179-.589.493-.364Zm-2.953,0h-.626l-.181-.545-.178.545h-.627l.491.364-.179.589.493-.363.493.363-.179-.589.493-.364Zm-3,0H-55.1l-.179-.545-.179.545h-.627l.493.364-.224.589.537-.363.493.363-.224-.589.493-.364Zm11.859-2.908h-.582l-.179-.591-.179.591h-.626l.491.363-.222.592.536-.364.493.364-.224-.592.493-.363Zm-2.953,0h-.582l-.224-.591-.179.591h-.582l.493.363-.224.592.493-.364.493.364-.181-.592.494-.363Zm-2.955,0h-.627l-.178-.591-.179.591h-.627l.493.363-.179.592.493-.364.491.364-.179-.592.493-.363Zm-2.953,0h-.626l-.181-.591-.178.591h-.627l.491.363-.179.592.493-.364.493.364-.179-.592.493-.363Zm-3,0H-55.1l-.179-.591-.179.591h-.627l.493.363-.224.592.537-.364.493.364-.224-.592.493-.363Zm11.859-2.953h-.582l-.179-.545-.179.545h-.626l.491.364-.222.636.536-.409.493.409-.224-.636.493-.364Zm-2.953,0h-.582l-.224-.545-.179.545h-.582l.493.364-.224.636.493-.409.493.409-.181-.636.494-.364Zm-2.955,0h-.627l-.178-.545-.179.545h-.627l.493.364-.179.636.493-.409.491.409-.179-.636.493-.364Zm-2.953,0h-.626l-.181-.545-.178.545h-.627l.491.364-.179.636.493-.409.493.409-.179-.636.493-.364Zm-3,0H-55.1l-.179-.545-.179.545h-.627l.493.364-.224.636.537-.409.493.409-.224-.636.493-.364Zm13.425,7.315h-.582l-.224-.545-.179.545h-.581l.493.364-.225.59.493-.363.493.363-.179-.59.493-.364Zm-2.953,0h-.627l-.179-.545-.179.545h-.626l.491.364-.179.59.493-.363.493.363-.179-.59.493-.364Zm-3,0h-.581l-.179-.545-.179.545h-.627l.493.364-.224.59.537-.363.491.363-.179-.59.448-.364Zm-2.953,0h-.582l-.179-.545-.222.545h-.582l.493.364-.224.59.536-.363.493.363-.222-.59.491-.364Zm-2.953,0h-.582l-.224-.545-.178.545h-.582l.493.364-.225.59.493-.363.493.363-.179-.59.493-.364Zm-2.953,0h-.627l-.179-.545-.179.545h-.627l.493.364-.179.59.493-.363.493.363-.179-.59.493-.364Zm14.812-2.908h-.582l-.224-.59-.179.59h-.581l.493.364-.225.591.493-.363.493.363-.179-.591.493-.364Zm-2.953,0h-.627l-.179-.59-.179.59h-.626l.491.364-.179.591.493-.363.493.363-.179-.591.493-.364Zm-3,0h-.581l-.179-.59-.179.59h-.627l.493.364-.224.591.537-.363.491.363-.179-.591.448-.364Zm-2.953,0h-.582l-.179-.59-.222.59h-.582l.493.364-.224.591.536-.363.493.363-.222-.591.491-.364Zm-2.953,0h-.582l-.224-.59-.178.59h-.582l.493.364-.225.591.493-.363.493.363-.179-.591.493-.364Zm-2.953,0h-.627l-.179-.59-.179.59h-.627l.493.364-.179.591.493-.363.493.363-.179-.591.493-.364Zm14.812-2.907h-.582l-.224-.591-.179.591h-.581l.493.364-.225.591.493-.364.493.364-.179-.591.493-.364Zm-2.953,0h-.627l-.179-.591-.179.591h-.626l.491.364-.179.591.493-.364.493.364-.179-.591.493-.364Zm-3,0h-.581l-.179-.591-.179.591h-.627l.493.364-.224.591.537-.364.491.364-.179-.591.448-.364Zm-2.953,0h-.582l-.179-.591-.222.591h-.582l.493.364-.224.591.536-.364.493.364-.222-.591.491-.364Zm-2.953,0h-.582l-.224-.591-.178.591h-.582l.493.364-.225.591.493-.364.493.364-.179-.591.493-.364Zm-2.953,0h-.627l-.179-.591-.179.591h-.627l.493.364-.179.591.493-.364.493.364-.179-.591.493-.364Zm14.812-2.955h-.582l-.224-.545-.179.545h-.581l.493.365-.225.634.493-.409.493.364-.179-.59.493-.365Zm-2.953,0h-.627l-.179-.545-.179.545h-.626l.491.365-.179.634.493-.409.493.364-.179-.59.493-.365Zm-3,0h-.581l-.179-.545-.179.545h-.627l.493.365-.224.634.537-.409.491.364-.179-.59.448-.365Zm-2.953,0h-.582l-.179-.545-.222.545h-.582l.493.365-.224.634.536-.409.493.364-.222-.59.491-.365Zm-2.953,0h-.582l-.224-.545-.178.545h-.582l.493.365-.225.634.493-.409.493.364-.179-.59Z" transform="translate(58.183 -308.13)" fill="#003066" fill-rule="evenodd"/><path d="M-40.239,308.13h21.562v2.044H-40.239V308.13Zm21.562,4.044v2.044H-40.239v-2.044Zm0,4.044v2.044H-40.239v-2.044Zm0,4.043v2.046H-40.239V320.26Zm0,4.044v2.044H-58.183V324.3Zm0,4.044v2.044H-58.183v-2.044Zm0,4.044v2.044H-58.183v-2.044Z" transform="translate(58.183 -308.13)" fill="#d6222e" fill-rule="evenodd"/></g></g></g></svg>