<svg xmlns="http://www.w3.org/2000/svg" width="37.87" height="37.87" viewBox="0 0 37.87 37.87"><path d="M6708.22,3184.865a18.108,18.108,0,1,1-18.11-18.109A18.108,18.108,0,0,1,6708.22,3184.865Z" transform="translate(-6671.175 -3165.929)" fill="#fff" fill-rule="evenodd"/><path d="M6688.458,3202.148a18.935,18.935,0,1,1,18.937-18.934A18.957,18.957,0,0,1,6688.458,3202.148Zm0-36.215a17.281,17.281,0,1,0,17.283,17.281A17.3,17.3,0,0,0,6688.458,3165.933Z" transform="translate(-6669.524 -3164.278)" fill="#8a000b"/><g transform="translate(9.074 9.856)"><path d="M6712.971,3197.027v-1.012a.865.865,0,0,1,.864-.864h5.307a.866.866,0,0,1,.863.864v1.012h1.364v-1.012a2.227,2.227,0,0,0-2.227-2.228h-5.307a2.227,2.227,0,0,0-2.227,2.228v1.012Z" transform="translate(-6706.625 -3193.787)" fill="#e50019"/><path d="M.273,0H1.762a.273.273,0,0,1,.273.273V1.845a.273.273,0,0,1-.273.273H.274A.274.274,0,0,1,0,1.844V.273A.273.273,0,0,1,.273,0Z" transform="translate(4.542 9.15)" fill="#e50019"/><path d="M6738,3221.184h-1.851a.092.092,0,0,0-.092.091v1.936a.091.091,0,0,0,.092.09H6738a.09.09,0,0,0,.09-.09v-1.936A.09.09,0,0,0,6738,3221.184Z" transform="translate(-6722.912 -3212.034)" fill="#e50019"/><path d="M6716.383,3222.261a3.392,3.392,0,0,1-2.487,1.107h-1.113v.537a1,1,0,0,1-1,1h-1.851a1,1,0,0,1-1-1v-.537h-4.754v.537a1,1,0,0,1-1,1h-1.853a1,1,0,0,1-1-1v-.537h-1.111a3.388,3.388,0,0,1-2.488-1.107l-.032-.035v7.114a1.546,1.546,0,0,0,1.547,1.545h16.632a1.546,1.546,0,0,0,1.545-1.545v-7.114C6716.4,3222.238,6716.392,3222.249,6716.383,3222.261Z" transform="translate(-6696.691 -3212.728)" fill="#8a000b"/><path d="M6714.87,3206.415h-16.632a1.547,1.547,0,0,0-1.547,1.546v1.812a2.927,2.927,0,0,0,.7,1.341,2.473,2.473,0,0,0,1.822.817h1.111v-.493a1,1,0,0,1,1-1h1.853a1,1,0,0,1,1,1v.493h4.754v-.493a1,1,0,0,1,1-1h1.851a1,1,0,0,1,1,1v.493h1.112a2.476,2.476,0,0,0,1.822-.817,2.922,2.922,0,0,0,.7-1.343v-1.81A1.546,1.546,0,0,0,6714.87,3206.415Z" transform="translate(-6696.691 -3202.197)" fill="#8a000b"/></g></svg>