<svg xmlns="http://www.w3.org/2000/svg" xmlns:xlink="http://www.w3.org/1999/xlink" width="26" height="26" viewBox="0 0 26 26">
  <defs>
    <clipPath id="clip-path">
      <rect id="Retângulo_31" data-name="Retângulo 31" width="23.994" height="23.994" fill="none"/>
    </clipPath>
  </defs>
  <g id="icon-languages-br" transform="translate(-1377.422 -22)">
    <g id="Elipse_69" data-name="Elipse 69" transform="translate(1377.422 22)" fill="#fff" stroke="#fff" stroke-width="3">
      <circle cx="13" cy="13" r="13" stroke="none"/>
      <circle cx="13" cy="13" r="11.5" fill="none"/>
    </g>
    <g id="Grupo_1652" data-name="Grupo 1652" transform="translate(1378.438 23.016)">
      <g id="Grupo_139" data-name="Grupo 139" clip-path="url(#clip-path)">
        <path id="Caminho_55" data-name="Caminho 55" d="M23.994,12A12,12,0,1,1,12,0a12.011,12.011,0,0,1,12,12" fill="#2c8b28"/>
        <path id="Caminho_56" data-name="Caminho 56" d="M14.064,36.851,2.625,29.559l11.44-7.292L25.51,29.559Z" transform="translate(-2.07 -17.562)" fill="#ffd600"/>
        <path id="Caminho_57" data-name="Caminho 57" d="M43.627,38.813A4.813,4.813,0,1,1,38.814,34a4.811,4.811,0,0,1,4.813,4.813" transform="translate(-26.817 -26.816)" fill="#102856"/>
        <path id="Caminho_58" data-name="Caminho 58" d="M34.97,47.133a5.194,5.194,0,0,0-.256.738,11,11,0,0,1,9.254,2.651,4.671,4.671,0,0,0,.172-.759,11.643,11.643,0,0,0-9.171-2.63" transform="translate(-27.379 -37.079)" fill="#fff"/>
        <path id="Caminho_59" data-name="Caminho 59" d="M36.654,48.087a.164.164,0,0,0-.043-.073.156.156,0,0,0-.065-.046.219.219,0,0,0-.178,0,.147.147,0,0,0-.068.046.2.2,0,0,0-.046.073.334.334,0,0,0,0,.188.225.225,0,0,0,.046.073.207.207,0,0,0,.068.048.25.25,0,0,0,.178,0,.236.236,0,0,0,.067-.048.174.174,0,0,0,.04-.073.281.281,0,0,0,0-.188m-.081.159a.133.133,0,0,1-.024.048.127.127,0,0,1-.041.035.157.157,0,0,1-.051.011.161.161,0,0,1-.054-.011.127.127,0,0,1-.041-.035.137.137,0,0,1-.024-.048.173.173,0,0,1-.011-.065.163.163,0,0,1,.011-.064.184.184,0,0,1,.024-.051.091.091,0,0,1,.041-.03.122.122,0,0,1,.054-.013.114.114,0,0,1,.054.013.108.108,0,0,1,.038.033.1.1,0,0,1,.024.048.23.23,0,0,1,.008.064.245.245,0,0,1-.008.065" transform="translate(-28.584 -37.818)" fill="#2c8b28"/>
        <path id="Caminho_60" data-name="Caminho 60" d="M39.425,48.069a.317.317,0,0,0-.032-.054.1.1,0,0,0-.043-.027v0a.144.144,0,0,0,.067-.04.125.125,0,0,0,.022-.078.132.132,0,0,0-.024-.075.071.071,0,0,0-.027-.024.193.193,0,0,0-.032-.016.161.161,0,0,0-.04-.005h-.046l-.2.011.022.447.086-.005-.008-.175.083-.005a.08.08,0,0,1,.027,0,.111.111,0,0,1,.024.014c.008.005.014.014.022.019s.008.016.013.027l.043.111.092-.005Zm-.091-.14a.064.064,0,0,1-.027.014.139.139,0,0,1-.038.005l-.1.005-.008-.135.113-.005a.1.1,0,0,1,.059.014.059.059,0,0,1,.022.048.118.118,0,0,1,0,.032.042.042,0,0,1-.016.022" transform="translate(-30.815 -37.657)" fill="#2c8b28"/>
        <path id="Caminho_61" data-name="Caminho 61" d="M42.2,47.672a.257.257,0,0,0-.175-.054h-.148v.447h.148a.2.2,0,0,0,.234-.226.229.229,0,0,0-.059-.167m-.062.28a.082.082,0,0,1-.043.03.177.177,0,0,1-.07.011h-.062v-.3h.062a.256.256,0,0,1,.07.011.1.1,0,0,1,.043.03.159.159,0,0,1,.032.108.175.175,0,0,1-.032.113" transform="translate(-33.025 -37.556)" fill="#2c8b28"/>
        <path id="Caminho_62" data-name="Caminho 62" d="M44.813,47.992v-.121l.229,0,0-.073-.232,0,0-.108.245,0,0-.073-.334,0,0,.447.339,0,0-.072Z" transform="translate(-35.276 -37.557)" fill="#2c8b28"/>
        <path id="Caminho_63" data-name="Caminho 63" d="M47.658,47.749l-.124.342-.089-.353-.121-.005-.025.447.081,0L47.392,48l.005-.178.1.366.078.005.127-.355-.011.175-.008.186.081,0,.022-.447Z" transform="translate(-37.306 -37.647)" fill="#2c8b28"/>
        <path id="Caminho_64" data-name="Caminho 64" d="M52.31,48.544l.008-.067-.3-.043-.057.4.307.046.011-.065-.232-.035.016-.108.2.03.011-.065-.207-.03.013-.1Z" transform="translate(-40.983 -38.2)" fill="#2c8b28"/>
        <path id="Caminho_65" data-name="Caminho 65" d="M56.436,49.257a.225.225,0,0,0-.016-.038.308.308,0,0,0-.03-.024.2.2,0,0,0-.035-.022l-.048-.016-.164-.048-.129.428.083.024.049-.159.081.024a.24.24,0,0,0,.073.011.149.149,0,0,0,.062-.011.109.109,0,0,0,.043-.032.148.148,0,0,0,.029-.057.136.136,0,0,0,.008-.043.179.179,0,0,0-.005-.038m-.086.057a.1.1,0,0,1-.014.03.046.046,0,0,1-.019.016.043.043,0,0,1-.027.005.1.1,0,0,1-.038-.005.037.037,0,0,1-.016,0l-.016-.005-.057-.016.04-.135.054.016c.016.005.032.008.043.014l.03.013.014.014a.041.041,0,0,1,.005.016.081.081,0,0,1,0,.04" transform="translate(-44.178 -38.732)" fill="#2c8b28"/>
        <path id="Caminho_66" data-name="Caminho 66" d="M59.1,50a.1.1,0,0,0-.016-.032.111.111,0,0,0-.027-.024.125.125,0,0,0-.032-.019.215.215,0,0,0-.046-.019l-.188-.062-.143.423.083.027.054-.167.081.027a.073.073,0,0,1,.024.014.143.143,0,0,1,.019.019.049.049,0,0,1,.011.027.094.094,0,0,1,.006.03l0,.118.086.03-.005-.127A.139.139,0,0,0,59,50.206a.069.069,0,0,0-.032-.04l0,0a.127.127,0,0,0,.078-.016.114.114,0,0,0,.048-.062A.146.146,0,0,0,59.1,50m-.089.057a.051.051,0,0,1-.035.043.107.107,0,0,1-.03,0,.1.1,0,0,1-.038-.008l-.1-.035.043-.124.105.035a.1.1,0,0,1,.051.032.062.062,0,0,1,0,.054" transform="translate(-46.258 -39.315)" fill="#2c8b28"/>
        <path id="Caminho_67" data-name="Caminho 67" d="M61.912,51.077a.156.156,0,0,0-.046-.064.21.21,0,0,0-.078-.046.214.214,0,0,0-.089-.014.2.2,0,0,0-.081.022.2.2,0,0,0-.065.054.26.26,0,0,0-.046.086.282.282,0,0,0-.016.094.223.223,0,0,0,.016.083.183.183,0,0,0,.049.065.22.22,0,0,0,.078.046.216.216,0,0,0,.089.013A.2.2,0,0,0,61.8,51.4a.241.241,0,0,0,.064-.056.225.225,0,0,0,.043-.083.314.314,0,0,0,.019-.094.292.292,0,0,0-.019-.083m-.083.148a.18.18,0,0,1-.027.059.17.17,0,0,1-.041.038.108.108,0,0,1-.049.019.094.094,0,0,1-.054-.008.107.107,0,0,1-.045-.027.1.1,0,0,1-.027-.043.193.193,0,0,1-.008-.056.283.283,0,0,1,.014-.065.188.188,0,0,1,.03-.057.132.132,0,0,1,.04-.038.109.109,0,0,1,.049-.019.091.091,0,0,1,.054.008.113.113,0,0,1,.046.027.1.1,0,0,1,.027.046.116.116,0,0,1,.005.054.168.168,0,0,1-.013.062" transform="translate(-48.499 -40.187)" fill="#2c8b28"/>
        <path id="Caminho_68" data-name="Caminho 68" d="M64.547,52.225a.177.177,0,0,0,.005-.065.138.138,0,0,0-.016-.059.2.2,0,0,0-.043-.054.378.378,0,0,0-.065-.038.224.224,0,0,0-.089-.022.216.216,0,0,0-.084.016.219.219,0,0,0-.067.048.335.335,0,0,0-.051.081.319.319,0,0,0-.025.094.226.226,0,0,0,.011.086.217.217,0,0,0,.043.067.248.248,0,0,0,.075.051.236.236,0,0,0,.075.019.14.14,0,0,0,.067-.008l0,.04.051.024.094-.215-.169-.075-.027.062.091.04-.021.051a.147.147,0,0,1-.059.013.194.194,0,0,1-.065-.019.113.113,0,0,1-.046-.03.1.1,0,0,1-.024-.046.116.116,0,0,1-.005-.054.229.229,0,0,1,.019-.067.224.224,0,0,1,.035-.056.169.169,0,0,1,.043-.035.113.113,0,0,1,.051-.013.125.125,0,0,1,.051.011.233.233,0,0,1,.038.024.083.083,0,0,1,.025.027.06.06,0,0,1,.011.032.128.128,0,0,1,0,.032Z" transform="translate(-50.566 -41.003)" fill="#2c8b28"/>
        <path id="Caminho_69" data-name="Caminho 69" d="M66.877,53.118a.089.089,0,0,0-.019-.03.356.356,0,0,0-.032-.024.389.389,0,0,0-.038-.027l-.175-.094-.215.393.075.04.086-.153.072.04a.042.042,0,0,1,.022.016.059.059,0,0,1,.014.024.093.093,0,0,1,.008.027.119.119,0,0,1,0,.03l-.019.116.081.043.019-.124a.231.231,0,0,0,0-.062.129.129,0,0,0-.024-.048.148.148,0,0,0,.084,0,.115.115,0,0,0,.056-.057.113.113,0,0,0,.019-.075.073.073,0,0,0-.011-.035m-.086.073a.206.206,0,0,1-.019.027.088.088,0,0,1-.024.011.13.13,0,0,1-.03,0,.136.136,0,0,1-.035-.016l-.092-.048.064-.119.1.054a.093.093,0,0,1,.043.043.05.05,0,0,1-.005.051" transform="translate(-52.368 -41.756)" fill="#2c8b28"/>
        <path id="Caminho_70" data-name="Caminho 70" d="M69.4,54.472l.038-.065-.288-.164-.22.39.3.167.035-.062-.22-.127.059-.1.2.113.035-.065-.2-.113.054-.094Z" transform="translate(-54.367 -42.781)" fill="#2c8b28"/>
        <path id="Caminho_71" data-name="Caminho 71" d="M71.944,56.075a.125.125,0,0,0-.032-.054.325.325,0,0,0-.054-.048.264.264,0,0,0-.062-.03.143.143,0,0,0-.057-.008.123.123,0,0,0-.089.04c0,.005-.005.008-.008.014s-.005.008-.005.014a.082.082,0,0,0-.014.048.108.108,0,0,0,.014.046.171.171,0,0,0,.029.046c.016.016.03.035.048.051a.206.206,0,0,0,.03.035c.008.011.013.022.018.03a.077.077,0,0,1,.006.024.031.031,0,0,1-.008.022.049.049,0,0,1-.022.019.032.032,0,0,1-.027.005.08.08,0,0,1-.032-.005.237.237,0,0,1-.035-.019.166.166,0,0,1-.032-.03.076.076,0,0,1-.019-.032.052.052,0,0,1-.005-.035.067.067,0,0,1,.011-.038l-.067-.046a.158.158,0,0,0-.022.127.236.236,0,0,0,.1.113.349.349,0,0,0,.065.032.166.166,0,0,0,.118-.006.166.166,0,0,0,.043-.043.075.075,0,0,0,.019-.038.094.094,0,0,0,0-.038.148.148,0,0,0-.011-.035.144.144,0,0,0-.021-.035.181.181,0,0,0-.03-.035c-.011-.011-.021-.024-.032-.035s-.022-.024-.03-.032a.111.111,0,0,1-.016-.027.036.036,0,0,1-.005-.022.062.062,0,0,1,.005-.022.048.048,0,0,1,.019-.013c.005-.005.013-.005.024-.005a.063.063,0,0,1,.03.005.088.088,0,0,1,.032.016c.049.032.062.07.04.11l.07.046a.156.156,0,0,0,.019-.057.135.135,0,0,0-.005-.056" transform="translate(-56.396 -44.115)" fill="#2c8b28"/>
        <path id="Caminho_72" data-name="Caminho 72" d="M74.291,57.619a.141.141,0,0,0-.032-.054.325.325,0,0,0-.054-.049.22.22,0,0,0-.062-.03.21.21,0,0,0-.057-.008.092.092,0,0,0-.048.011.119.119,0,0,0-.04.032.056.056,0,0,0-.008.013.073.073,0,0,0-.008.014.067.067,0,0,0-.008.046.088.088,0,0,0,.011.046.258.258,0,0,0,.032.049c.014.016.03.032.046.051s.022.024.03.035l.019.027a.1.1,0,0,1,.006.024.047.047,0,0,1-.008.024.07.07,0,0,1-.019.019.112.112,0,0,1-.03.005.067.067,0,0,1-.03-.008.122.122,0,0,1-.038-.019.152.152,0,0,1-.032-.027.213.213,0,0,1-.019-.032.076.076,0,0,1-.006-.035.086.086,0,0,1,.011-.038l-.067-.046a.143.143,0,0,0-.019.127.2.2,0,0,0,.1.11.146.146,0,0,0,.065.032.167.167,0,0,0,.062.011.126.126,0,0,0,.054-.016.1.1,0,0,0,.043-.04.092.092,0,0,0,.019-.041.059.059,0,0,0,0-.038.1.1,0,0,0-.011-.035.215.215,0,0,0-.022-.035.153.153,0,0,0-.03-.032.138.138,0,0,0-.032-.035c-.011-.013-.022-.027-.03-.035a.072.072,0,0,1-.016-.027.023.023,0,0,1-.005-.021.049.049,0,0,1,.005-.019.035.035,0,0,1,.019-.016.074.074,0,0,1,.024-.005.117.117,0,0,1,.03.005.089.089,0,0,1,.032.016c.049.035.062.07.04.111l.07.046a.148.148,0,0,0,.019-.056.134.134,0,0,0-.006-.057" transform="translate(-58.248 -45.334)" fill="#2c8b28"/>
        <path id="Caminho_73" data-name="Caminho 73" d="M76.534,59.363a.144.144,0,0,0-.032-.075.2.2,0,0,0-.064-.059.179.179,0,0,0-.084-.032.173.173,0,0,0-.083,0,.221.221,0,0,0-.137.113.31.31,0,0,0-.038.086.237.237,0,0,0,0,.086.19.19,0,0,0,.035.075.209.209,0,0,0,.067.062.241.241,0,0,0,.083.032.2.2,0,0,0,.081-.005.187.187,0,0,0,.076-.04.414.414,0,0,0,.062-.07.306.306,0,0,0,.038-.089.235.235,0,0,0,0-.086m-.083.067a.238.238,0,0,1-.03.059.151.151,0,0,1-.04.051.167.167,0,0,1-.046.03.124.124,0,0,1-.105-.013.154.154,0,0,1-.038-.035.177.177,0,0,1-.016-.048.133.133,0,0,1,.006-.057.168.168,0,0,1,.027-.059.149.149,0,0,1,.041-.051.293.293,0,0,1,.045-.03.121.121,0,0,1,.054-.006.154.154,0,0,1,.051.019.105.105,0,0,1,.038.038.077.077,0,0,1,.016.048.189.189,0,0,1,0,.054" transform="translate(-60.012 -46.685)" fill="#2c8b28"/>
        <path id="Caminho_74" data-name="Caminho 74" d="M63.151,48.727l.046.14h.145l-.118.089.046.14-.119-.089-.119.089.046-.14-.121-.089h.148Z" transform="translate(-49.655 -38.431)" fill="#fff"/>
        <path id="Caminho_75" data-name="Caminho 75" d="M62.419,54.841l.035.11h.116l-.094.067.037.11-.094-.067-.094.067.035-.11-.092-.067h.116Z" transform="translate(-49.111 -43.254)" fill="#fff"/>
        <path id="Caminho_76" data-name="Caminho 76" d="M56.155,59.619l.041.121h.126l-.1.075.038.124-.1-.075-.105.075.04-.124-.1-.075h.127Z" transform="translate(-44.158 -47.021)" fill="#fff"/>
        <path id="Caminho_77" data-name="Caminho 77" d="M47.452,56.8l.043.129h.135l-.108.078.04.129-.11-.081-.108.081.041-.129-.111-.078h.138Z" transform="translate(-37.286 -44.801)" fill="#fff"/>
        <path id="Caminho_78" data-name="Caminho 78" d="M39.435,61.262l.046.143h.151l-.124.089.048.143-.121-.089-.124.089.049-.143-.124-.089h.151Z" transform="translate(-30.946 -48.317)" fill="#fff"/>
        <path id="Caminho_79" data-name="Caminho 79" d="M36.688,63.4l.043.129h.134l-.11.078.043.129-.11-.078-.108.078.04-.129-.11-.078h.137Z" transform="translate(-28.796 -50.005)" fill="#fff"/>
        <path id="Caminho_80" data-name="Caminho 80" d="M46.931,67.95l.046.14h.145L47,68.176l.046.137-.119-.086-.119.086.046-.137-.119-.086h.145Z" transform="translate(-36.863 -53.592)" fill="#fff"/>
        <path id="Caminho_81" data-name="Caminho 81" d="M43.737,66.1l.035.1h.108l-.089.065.035.105-.089-.065-.089.065.035-.105-.089-.065h.11Z" transform="translate(-34.383 -52.135)" fill="#fff"/>
        <path id="Caminho_82" data-name="Caminho 82" d="M44.325,63.733l.038.119h.124l-.1.072.038.116-.1-.073-.1.073.038-.116-.1-.072h.121Z" transform="translate(-34.834 -50.267)" fill="#fff"/>
        <path id="Caminho_83" data-name="Caminho 83" d="M42,60.294l.027.083h.086l-.07.048.027.083L42,60.458l-.07.051.027-.083-.07-.048h.086Z" transform="translate(-33.036 -47.554)" fill="#fff"/>
        <path id="Caminho_84" data-name="Caminho 84" d="M37.34,51.542l.051.159h.164l-.132.1.051.159-.135-.1-.135.1.051-.159-.135-.1h.167Z" transform="translate(-29.278 -40.651)" fill="#fff"/>
        <path id="Caminho_85" data-name="Caminho 85" d="M58.805,61.695l.04.121h.129l-.105.075.04.124-.105-.075-.1.075.037-.124-.1-.075h.129Z" transform="translate(-46.248 -48.659)" fill="#fff"/>
        <path id="Caminho_86" data-name="Caminho 86" d="M56.08,66.09l.046.14h.148l-.121.086.046.143-.119-.089-.121.089.046-.143-.119-.086h.148Z" transform="translate(-44.078 -52.125)" fill="#fff"/>
        <path id="Caminho_87" data-name="Caminho 87" d="M62.951,71.25l.043.135h.14l-.113.083.043.134-.113-.083-.116.083.043-.134-.113-.083h.14Z" transform="translate(-49.503 -56.195)" fill="#fff"/>
        <path id="Caminho_88" data-name="Caminho 88" d="M72.07,63.886l.046.135h.14l-.113.083.043.135-.116-.083-.113.083L72,64.1l-.113-.083h.14Z" transform="translate(-56.697 -50.387)" fill="#fff"/>
        <path id="Caminho_89" data-name="Caminho 89" d="M73.118,66l.038.116h.124l-.1.073.038.118-.1-.073-.1.073.038-.118-.1-.073h.124Z" transform="translate(-57.541 -52.055)" fill="#fff"/>
        <path id="Caminho_90" data-name="Caminho 90" d="M75.411,64.255l.035.108h.113l-.091.064.035.108-.091-.067-.092.067.035-.108-.092-.064h.113Z" transform="translate(-59.36 -50.678)" fill="#fff"/>
        <path id="Caminho_91" data-name="Caminho 91" d="M71.717,67.835l.041.116h.121l-.1.073.04.118-.1-.073-.1.073.041-.118-.1-.073h.124Z" transform="translate(-56.436 -53.502)" fill="#fff"/>
        <path id="Caminho_92" data-name="Caminho 92" d="M67.577,70.727l.04.127h.135l-.108.078.041.127-.108-.078-.108.078.04-.127-.108-.078h.135Z" transform="translate(-53.16 -55.783)" fill="#fff"/>
        <path id="Caminho_93" data-name="Caminho 93" d="M65,69.376l.032.108h.113l-.089.064.032.108L65,69.589l-.091.067.035-.108-.091-.064h.113Z" transform="translate(-51.151 -54.717)" fill="#fff"/>
        <path id="Caminho_94" data-name="Caminho 94" d="M67.621,68.663l.032.094h.1l-.078.056.03.094-.081-.057-.078.057.03-.094-.081-.056h.1Z" transform="translate(-53.231 -54.155)" fill="#fff"/>
        <path id="Caminho_95" data-name="Caminho 95" d="M70,69.109l.032.094h.1l-.078.059.03.094L70,69.3l-.078.059.03-.094-.081-.059h.1Z" transform="translate(-55.11 -54.507)" fill="#fff"/>
        <path id="Caminho_96" data-name="Caminho 96" d="M67.685,73.25l.032.094h.1l-.081.059.03.094-.081-.059-.078.059.029-.094-.081-.059h.1Z" transform="translate(-53.281 -57.772)" fill="#fff"/>
        <path id="Caminho_97" data-name="Caminho 97" d="M61.245,68.816l.032.108h.113l-.091.065.035.108-.089-.065-.092.065.035-.108-.091-.065h.113Z" transform="translate(-48.187 -54.276)" fill="#fff"/>
        <path id="Caminho_98" data-name="Caminho 98" d="M56.523,74.294l.016.054H56.6l-.046.032.019.054-.046-.032-.045.032.016-.054-.046-.032H56.5Z" transform="translate(-44.52 -58.596)" fill="#fff"/>
        <path id="Caminho_99" data-name="Caminho 99" d="M53.885,61.759l.035.11h.116l-.094.067.038.108-.094-.067-.091.067.035-.108-.094-.067h.116Z" transform="translate(-42.38 -48.709)" fill="#fff"/>
        <path id="Caminho_100" data-name="Caminho 100" d="M55.229,63.542l.027.081h.083l-.067.049.025.081-.068-.051-.067.051.027-.081-.068-.049h.083Z" transform="translate(-43.475 -50.116)" fill="#fff"/>
      </g>
    </g>
  </g>
</svg>
