<svg xmlns="http://www.w3.org/2000/svg" xmlns:xlink="http://www.w3.org/1999/xlink" width="38.327" height="38.327" viewBox="0 0 38.327 38.327"><defs><clipPath id="a"><rect width="38.327" height="38.327" fill="none"/></clipPath></defs><g clip-path="url(#a)"><path d="M37.087,18.76A18.327,18.327,0,1,1,18.761.434,18.329,18.329,0,0,1,37.087,18.76" transform="translate(0.403 0.404)" fill="#fff"/><path d="M19.164,1.675a17.49,17.49,0,1,0,17.49,17.49,17.509,17.509,0,0,0-17.49-17.49m0,36.652A19.163,19.163,0,1,1,38.327,19.164,19.186,19.186,0,0,1,19.164,38.327" transform="translate(0 -0.001)" fill="#f27c00"/><path d="M14.969,11.757a1.992,1.992,0,1,0,2.067,1.991,2.029,2.029,0,0,0-2.067-1.991" transform="translate(12.018 10.951)" fill="#f27c00"/><path d="M7.264,11.757a1.992,1.992,0,1,0,0,3.981,1.992,1.992,0,1,0,0-3.981" transform="translate(4.841 10.951)" fill="#f27c00"/><path d="M18.19,6.025H4.455A1.077,1.077,0,0,0,3.381,7.1v9.939l0,.035,0,.037v1.441a.538.538,0,0,0,.537.537H6.083a2.872,2.872,0,0,1,5.742,0h7.436V7.1A1.076,1.076,0,0,0,18.19,6.025" transform="translate(3.149 5.612)" fill="#f27c00"/><path d="M18.027,12.3,13.353,11.02a.371.371,0,0,1-.259-.338V9.028a.269.269,0,0,1,.268-.268h2.467a.535.535,0,0,1,.408.23l1.91,3.148c.077.126.023.2-.12.158m2.295,1.356L16.978,8.146a1.057,1.057,0,0,0-.815-.458H12.557a.538.538,0,0,0-.537.535v9.316h.9a2.873,2.873,0,0,1,5.744,0h1.4A.538.538,0,0,0,20.6,17V14.647a2.268,2.268,0,0,0-.278-.995" transform="translate(11.197 7.161)" fill="#ffa900"/></g></svg>