<svg xmlns="http://www.w3.org/2000/svg" width="38.327" height="38.327" viewBox="0 0 38.327 38.327"><path d="M2626.994,5213.772a18.326,18.326,0,1,1-18.327-18.327A18.328,18.328,0,0,1,2626.994,5213.772Z" transform="translate(-2589.505 -5194.609)" fill="#fff" fill-rule="evenodd"/><path d="M2607.027,5231.3a19.163,19.163,0,1,1,19.164-19.164A19.184,19.184,0,0,1,2607.027,5231.3Zm0-36.654a17.49,17.49,0,1,0,17.49,17.491A17.509,17.509,0,0,0,2607.027,5194.644Z" transform="translate(-2587.864 -5192.971)" fill="#003472"/><g transform="translate(9.175 8.064)"><g transform="translate(0 0)"><g transform="translate(0.003)"><path d="M2619.921,5221.83a.806.806,0,0,0,.805-.807v-1.328a1.12,1.12,0,0,1,1.128-1.257,1.175,1.175,0,0,1,.828.328,1.5,1.5,0,0,1,.395,1.1v9.541a5.162,5.162,0,0,0,.588-.334l.545-.354.576.354a5.061,5.061,0,0,0,.632.353h4.589a4.813,4.813,0,0,0,.633-.354l.542-.354.581.354a4.362,4.362,0,0,0,.391.231l-.007-5.2h5.555V5222.5h-5.555v-2.626a3.037,3.037,0,0,0-.878-2.257,2.768,2.768,0,0,0-1.953-.785,2.712,2.712,0,0,0-2.739,2.866v1.328a.8.8,0,1,0,1.61,0v-1.328a1.121,1.121,0,0,1,1.129-1.257,1.172,1.172,0,0,1,.827.328,1.5,1.5,0,0,1,.394,1.1v5.581l-5.849-.006v-1.337h5.094V5222.5h-5.1v-2.626a3.032,3.032,0,0,0-.879-2.257,2.774,2.774,0,0,0-1.953-.785,2.712,2.712,0,0,0-2.741,2.866v1.328A.808.808,0,0,0,2619.921,5221.83Zm4.766,4.94,5.849.007v1.351l-5.849,0Z" transform="translate(-2617.728 -5216.829)" fill="#003472"/><rect width="19.956" height="1.61" transform="translate(0.003 20.588)" fill="#003472"/><path d="M2619.622,5233.6h-4.607v1.612h4.6Z" transform="translate(-2615.015 -5227.929)" fill="#003472"/></g><g transform="translate(0 13.147)"><path d="M2631.966,5267.517a6.4,6.4,0,0,1-3.507-1.045,6.188,6.188,0,0,1-3.469,1.045,6.4,6.4,0,0,1-3.506-1.045,6.187,6.187,0,0,1-3.467,1.045,6.367,6.367,0,0,1-3.007-.753l0,2.716h19.939v-2.716A6.241,6.241,0,0,1,2631.966,5267.517Z" transform="translate(-2615.007 -5262.839)" fill="#00a1ed"/><path d="M2615.1,5258.475a5.344,5.344,0,0,0,5.852,0l.545-.354.578.356a5.351,5.351,0,0,0,5.854,0l.541-.356.579.356a5.341,5.341,0,0,0,2.928.872,5.464,5.464,0,0,0,2.982-.91v-2.421a15.565,15.565,0,0,0-9.953.729,6.486,6.486,0,0,0-6.988,0,6.469,6.469,0,0,1-2.991-.728v2.411Z" transform="translate(-2615.023 -5255.723)" fill="#00a1ed"/></g></g></g></svg>