<svg xmlns="http://www.w3.org/2000/svg" width="36.614" height="36.614" viewBox="0 0 36.614 36.614"><path d="M52.237,34.738A17.507,17.507,0,1,1,34.726,17.227,17.5,17.5,0,0,1,52.237,34.738Z" transform="translate(-16.423 -16.427)" fill="#fff" fill-rule="evenodd"/><path d="M31.336,51.275a.9.9,0,0,0,1.265.111l8.652-7.26c1.184,1.238,2.368,2.6,3.564,4.034a.306.306,0,0,0,.412.054l.264-.187a.307.307,0,0,0,.123-.309,20.172,20.172,0,0,0-2.291-5.493l.642-.539a.579.579,0,0,0,.071-.816L43.1,39.748a.579.579,0,0,0-.816-.071L41.9,40a15.924,15.924,0,0,0-2.16-2.506.73.73,0,0,0-.962-.019L36.84,39.1a.732.732,0,0,0,.051,1.161,24.229,24.229,0,0,1,2.3,1.852l-8.433,7.076a.9.9,0,0,0-.111,1.265Z" transform="translate(-25.369 -30.018)" fill="#6e4900"/><path d="M82.818,54.273a.779.779,0,1,0,.778-.779A.779.779,0,0,0,82.818,54.273Z" transform="translate(-60.837 -40.983)" fill="#442100"/><path d="M80,63.758a.458.458,0,1,0-.457-.458A.457.457,0,0,0,80,63.758Z" transform="translate(-58.62 -47.313)" fill="#442100"/><path d="M69.9,72.949a.457.457,0,1,0,.458-.458A.457.457,0,0,0,69.9,72.949Z" transform="translate(-52.09 -53.845)" fill="#442100"/><path d="M76.713,56a.575.575,0,1,0-.575-.575A.575.575,0,0,0,76.713,56Z" transform="translate(-56.314 -41.898)" fill="#442100"/><path d="M33.054,51.363A18.307,18.307,0,1,1,51.361,33.056,18.33,18.33,0,0,1,33.054,51.363Zm0-35.014A16.707,16.707,0,1,0,49.761,33.056,16.721,16.721,0,0,0,33.054,16.349Z" transform="translate(-14.747 -14.749)" fill="#442100"/><path d="M58.887,43.286,48.79,59.553a.321.321,0,0,1-.329.147l-5.742-1.012a.645.645,0,0,0-.658.293l-1.879,3.014a14.575,14.575,0,0,0,21.13-20.036l-1.8.786A1.4,1.4,0,0,0,58.887,43.286Z" transform="translate(-31.969 -33.171)" fill="#442100"/></svg>