<svg xmlns="http://www.w3.org/2000/svg" xmlns:xlink="http://www.w3.org/1999/xlink" width="36.613" height="36.614" viewBox="0 0 36.613 36.614"><defs><clipPath id="a"><rect width="36.614" height="36.614" transform="translate(0)" fill="none"/></clipPath></defs><g clip-path="url(#a)"><path d="M52.239,34.736A17.507,17.507,0,1,1,34.731,17.229,17.509,17.509,0,0,1,52.239,34.736" transform="translate(-16.424 -16.428)" fill="#fff" fill-rule="evenodd"/><path d="M33.055,51.363A18.307,18.307,0,1,1,51.361,33.057,18.327,18.327,0,0,1,33.055,51.363m0-35.014A16.708,16.708,0,1,0,49.762,33.057,16.727,16.727,0,0,0,33.055,16.349" transform="translate(-14.748 -14.749)" fill="#006e2d"/><path d="M61.344,59.256l-4.089-4.168a.678.678,0,0,0-1.164.472h0v3.509l-3.906-3.981a.679.679,0,0,0-1.165.472v3.566l-3.893-3.968v-3.6A1.561,1.561,0,0,0,45.564,50H44.523a1.538,1.538,0,0,0-1.562,1.393V64.432a1.766,1.766,0,0,0,1.723,1.887H59.633a1.72,1.72,0,0,0,1.72-1.719V59.256Z" transform="translate(-33.85 -38.616)" fill="#006e2d" fill-rule="evenodd"/><path d="M49.989,40.24a6.232,6.232,0,0,1,3.667-.816c1.964.118,4.529.073,4.74-2.546-2.133,2.919-6.636-1.866-8.407,3.362" transform="translate(-38.609 -29.732)" fill="#8abb2a" fill-rule="evenodd"/></g></svg>