<svg xmlns="http://www.w3.org/2000/svg" xmlns:xlink="http://www.w3.org/1999/xlink" width="233.958" height="107.7" viewBox="0 0 233.958 107.7">
  <defs>
    <clipPath id="clip-path">
      <path id="Caminho_1143" data-name="Caminho 1143" d="M538.113,330.213c-30.117,0-81.047,24.006-113.844,53.684-32.857,29.734-35.1,53.923-5,54.016,14.617.047,34.168-5.606,54.183-14.828-.6-.075-1.216-.145-1.845-.2-14.509,6.249-28.226,10.144-38.779,10.51-25.589.893-22.591-19.125,6.334-44.874s72.847-47.345,98.438-48.236c18.716-.647,22.286,9.891,11.527,25.677h1.112c15.357-20.773,11.652-35.675-11.957-35.746Z" transform="translate(-398.084 -330.213)" fill="none"/>
    </clipPath>
    <linearGradient id="linear-gradient" x1="-24.596" y1="-5.703" x2="-24.585" y2="-5.703" gradientUnits="objectBoundingBox">
      <stop offset="0" stop-color="#d9d7d9"/>
      <stop offset="0.5" stop-color="#fff"/>
      <stop offset="1" stop-color="#d9d7d9"/>
    </linearGradient>
    <clipPath id="clip-path-2">
      <path id="Caminho_1144" data-name="Caminho 1144" d="M431.507,384.554,420.116,395.92c25.055-6.371,34.064-4.089,44.045-1.806,9.09,2.082,18.985,4.16,42.537-.294l11.154-11.129c-26.312,5.423-36.763,3.233-46.323,1.042-5.127-1.175-10-2.351-16.923-2.351-5.8,0-13.049.83-23.1,3.172m13.388-13.36-11.227,11.2c20.943-4.7,29.323-2.589,38.531-.479,9.734,2.233,20.391,4.462,47.779-1.345l11.269-11.24c-30.29,6.865-41.483,4.53-51.663,2.2-5.127-1.176-10-2.353-16.921-2.353a90.854,90.854,0,0,0-17.767,2.014" transform="translate(-420.116 -369.181)" fill="none"/>
    </clipPath>
    <linearGradient id="linear-gradient-2" x1="-68.749" y1="-6.074" x2="-68.72" y2="-6.074" gradientUnits="objectBoundingBox">
      <stop offset="0" stop-color="#2b4b82"/>
      <stop offset="0.25" stop-color="#2b4b82"/>
      <stop offset="0.491" stop-color="#1d6292"/>
      <stop offset="0.75" stop-color="#0c80a8"/>
      <stop offset="1" stop-color="#0c80a8"/>
    </linearGradient>
  </defs>
  <g id="logo-bauminas-hidroazul" transform="translate(-388.759 -330.213)">
    <g id="Grupo_1612" data-name="Grupo 1612" transform="translate(405.481 330.213)">
      <g id="Grupo_1611" data-name="Grupo 1611" clip-path="url(#clip-path)">
        <rect id="Retângulo_446" data-name="Retângulo 446" width="176.423" height="107.75" transform="translate(-8.91 -0.004)" fill="url(#linear-gradient)"/>
      </g>
    </g>
    <g id="Grupo_1614" data-name="Grupo 1614" transform="translate(444.99 400.092)">
      <g id="Grupo_1613" data-name="Grupo 1613" clip-path="url(#clip-path-2)">
        <rect id="Retângulo_447" data-name="Retângulo 447" width="63.077" height="114.6" transform="matrix(0.32, -0.948, 0.948, 0.32, -8.808, 26.126)" fill="url(#linear-gradient-2)"/>
      </g>
    </g>
    <g id="Grupo_1615" data-name="Grupo 1615" transform="translate(559.666 404.384)">
      <path id="Caminho_1145" data-name="Caminho 1145" d="M492.741,371.788v11.483h-1.583v-4.992h-5.509v4.992h-1.583V371.788h1.583v4.992h5.509v-4.992Z" transform="translate(-484.065 -371.406)" fill="#2b4a81"/>
      <path id="Caminho_1146" data-name="Caminho 1146" d="M491.858,373.4h-1.689V371.73h1.689Zm-1.635,1.329h1.583v8.59h-1.583Z" transform="translate(-479.224 -371.452)" fill="#2b4a81"/>
      <path id="Caminho_1147" data-name="Caminho 1147" d="M495.782,374.708a6.539,6.539,0,0,1,1.842.262v-3.395h1.569v9.212c0,.656-.26,2.79-3.547,2.79-1.429,0-3.805-.586-3.805-4.544,0-3.567,2.152-4.325,3.942-4.325m-.136,7.474c1.307,0,1.978-.427,1.978-1.291v-4.424a4.754,4.754,0,0,0-1.842-.36c-1.223,0-2.374.36-2.374,2.927,0,2.783,1.189,3.149,2.238,3.149" transform="translate(-477.898 -371.575)" fill="#2b4a81"/>
      <path id="Caminho_1148" data-name="Caminho 1148" d="M498.339,382.052h-1.583v-7.869a10.963,10.963,0,0,1,4.18-.859v1.445a11.166,11.166,0,0,0-2.6.36Z" transform="translate(-473.999 -370.187)" fill="#2b4a81"/>
      <path id="Caminho_1149" data-name="Caminho 1149" d="M507.283,377.758c0,3.647-2.2,4.424-4.045,4.424s-4.044-.776-4.044-4.424,2.2-4.424,4.044-4.424,4.045.771,4.045,4.424m-1.585,0c0-2.668-1.169-3.031-2.46-3.031s-2.46.362-2.46,3.031,1.169,3.029,2.46,3.029,2.46-.36,2.46-3.029" transform="translate(-472.065 -370.179)" fill="#2b4a81"/>
      <path id="Caminho_1150" data-name="Caminho 1150" d="M511.287,376.919V379.4c0,.656-.258,2.79-3.567,2.79-3.373,0-3.633-2.172-3.633-2.844,0-1.7,1.519-2.719,4.049-2.719a11.249,11.249,0,0,1,1.565.1c-.068-1.411-.689-2.028-2.374-2.028a7.327,7.327,0,0,0-2.378.427v-1.345a7.351,7.351,0,0,1,2.6-.464c2.394,0,3.735,1.279,3.735,3.6m-1.585,1.07a9.316,9.316,0,0,0-1.5-.1c-.739,0-2.548.224-2.548,1.444,0,.984.7,1.465,2.064,1.465,1.311,0,1.982-.464,1.982-1.411Z" transform="translate(-468.183 -370.189)" fill="#2b4a81"/>
      <path id="Caminho_1151" data-name="Caminho 1151" d="M514.842,373.4v1.444l-4.355,5.665h4.355v1.481h-6.387v-1.444l4.374-5.686h-4.271V373.4Z" transform="translate(-464.718 -370.126)" fill="#2b4a81"/>
      <path id="Caminho_1152" data-name="Caminho 1152" d="M520.08,373.4v4.976c0,2.39-1.327,3.768-3.633,3.768s-3.633-1.377-3.633-3.768V373.4h1.567v5.1c0,1.564.637,2.252,2.066,2.252,1.411,0,2.048-.689,2.048-2.252v-5.1Z" transform="translate(-461.261 -370.126)" fill="#2b4a81"/>
      <rect id="Retângulo_448" data-name="Retângulo 448" width="1.585" height="11.865" transform="translate(60.555)" fill="#2b4a81"/>
    </g>
    <path id="Caminho_1153" data-name="Caminho 1153" d="M395.91,376.286h3.911l.3-.007.3-.011.292-.022.289-.029.274-.043.276-.05.26-.057.26-.072.255-.075.24-.09.238-.1.231-.109.222-.115.215-.129.212-.136.2-.147.194-.161.181-.174.165-.172.16-.187.149-.2.133-.2.12-.2.109-.222.1-.228.081-.23.07-.242.057-.244.045-.251.029-.256.016-.258.011-.265-.011-.26-.016-.255-.029-.247-.045-.249-.057-.237-.068-.233-.077-.228-.1-.219-.108-.212-.122-.206-.129-.2-.145-.183-.156-.185-.165-.165-.179-.158-.186-.151-.2-.143-.206-.131-.215-.118-.222-.111-.231-.1-.235-.09-.244-.083-.255-.072-.26-.066-.265-.054-.276-.047-.282-.036-.292-.029-.3-.018-.3-.014-.31,0H395.91Zm0-13.595h3.256l.3-.007.289-.007.283-.021.28-.029.269-.032.265-.043.255-.054.251-.059.251-.065.233-.079.228-.082.226-.1.219-.1.2-.111.2-.124.194-.133.188-.143.176-.147.167-.161.154-.167.145-.176.133-.187.118-.194.109-.2.1-.208.081-.219.07-.224.059-.226.041-.233.031-.239.016-.24.009-.247-.005-.246-.02-.24-.025-.233-.041-.228-.056-.226-.068-.215-.079-.213-.093-.2-.106-.2-.118-.183-.129-.181-.14-.165-.158-.158-.161-.147-.172-.138-.185-.126-.19-.115-.2-.108-.21-.1-.217-.086-.228-.075-.237-.075-.244-.066-.256-.057-.267-.05-.273-.043-.283-.032-.292-.032-.307-.022-.31-.014-.325-.011-.328,0H395.91Zm-7.151,17.744V350.643h10.65l.393,0,.389.007.378.005.375.013.369.018.36.021.35.025.35.029.341.032.335.036.326.039.323.039.314.05.31.05.3.054.294.057.289.065.281.065.278.07.271.072.262.075.256.082.253.083.242.083.239.09.229.093.222.1.221.1.21.1.206.108.2.108.19.115.187.115.178.124.17.118.167.125.158.126.154.129.147.136.14.138.133.136.129.14.122.147.117.147.106.152.106.151.1.158.091.161.09.163.081.169.075.169.074.176.065.178.063.183.05.183.048.192.041.194.038.194.034.2.027.206.018.208.014.215.007.221.005.219-.005.269-.014.264-.025.247-.041.251-.043.242-.056.233-.068.23-.077.224-.088.215-.1.212-.109.213-.115.2-.129.2L410.7,361l-.151.192-.158.187-.172.183-.179.177-.2.172-.2.169-.215.165-.231.161-.246.156a18.792,18.792,0,0,1-5.539,2.1,19.431,19.431,0,0,1,5.52,1.41l.154.075.152.079.145.079.142.083.142.086.14.082.134.093.135.091.131.093.124.1.126.1.122.1.118.1.118.109.113.108.113.111.108.115.1.111.109.115.1.115.1.124.09.115.09.122.084.125.083.122.079.122.074.131.072.125.068.129.061.129.063.133.057.135.054.14.052.136.045.133.048.143.041.145.038.143.036.143.03.151.029.147.025.156.023.154.018.154.014.158.011.16.011.161,0,.165,0,.165,0,.26-.013.255-.018.247-.023.246-.032.237-.036.233-.048.231-.052.226-.061.219-.063.217-.073.212-.077.208-.086.2-.091.2-.1.2-.1.188-.115.187-.118.186-.129.176-.134.181-.136.172-.152.169-.152.165-.167.163-.167.158-.181.158-.183.151-.2.151-.2.145-.21.143-.215.14-.226.133-.231.129-.24.131-.246.126-.256.118-.264.118-.269.111-.278.108-.287.109-.294.1-.3.1-.31.09-.317.086-.326.086-.332.079-.339.075-.35.074-.355.068-.368.061-.369.061-.384.054-.385.05-.395.047-.4.043-.414.036-.418.032-.425.029-.434.025-.441.018-.45.018-.454.007-.466.007-.473,0Zm63.432-29.793V367.1l0,.267.005.262.007.262.016.256.014.251.022.247.027.249.027.24.03.237.038.235.036.229.045.226.047.224.054.219.056.215.054.21.065.212.068.2.072.2.072.2.082.19.082.19.088.188.091.179.1.176.1.172.1.174.109.165.115.161.118.158.12.152.124.147.129.143.134.136.136.14.145.131.143.129.151.118.156.118.158.111.163.113.165.1.172.1.176.09.174.09.183.086.185.079.185.072.194.072.2.063.2.057.2.061.2.047.208.047.213.043.213.036.215.032.222.029.222.025.226.021.231.014.233.007.235.007.24,0,.229,0,.228-.007.228-.007.222-.014.217-.018.219-.022.215-.025.208-.032.21-.036.206-.036.2-.047.2-.047.2-.054.192-.05.192-.063.192-.065.179-.072.185-.072.176-.075.178-.082.172-.086.167-.09.167-.1.163-.1.158-.1.152-.108.154-.115.149-.115.145-.122.138-.125.138-.131.131-.136.133-.14.127-.14.117-.149.117-.147.111-.154.109-.154.1-.161.1-.167.1-.165.086-.169.088-.176.081-.178.081-.179.073-.187.07-.186.068-.192.056-.194.061-.2.054-.2.048-.2.045-.208.039-.208.038-.21.036-.219.027-.219.025-.221.022-.226.016-.23.014-.231.007-.233.007-.237,0-.239v-17.2h6.361v17.2l0,.411-.014.4-.016.393-.027.393-.036.38-.043.375-.048.369-.057.364-.063.355-.075.35-.077.344-.088.339-.095.333-.1.328-.108.319-.118.312-.122.31-.136.3-.14.3-.143.291-.156.289-.161.28-.169.273-.176.267-.187.262-.19.26-.2.251-.2.247-.219.242-.219.237-.231.229-.238.224-.242.219-.253.212-.253.206-.262.2-.265.19-.273.187-.283.181-.282.169-.294.161-.3.158-.3.152-.314.143-.312.136-.325.129-.328.122-.337.118-.341.109-.35.1-.353.1-.36.086-.371.083-.375.075-.377.065-.389.061-.393.056-.4.047-.4.039-.414.032-.42.025-.427.018-.432.011-.441,0-.443,0-.438-.011-.43-.018-.425-.025-.418-.032-.411-.039-.407-.043-.4-.056-.389-.061-.386-.068-.377-.075-.371-.075-.366-.09-.357-.093-.348-.1-.346-.108-.335-.117-.332-.122-.323-.129-.317-.133-.316-.143-.3-.152-.3-.154-.292-.165-.289-.169-.276-.172-.278-.188-.264-.186-.264-.2-.256-.2-.247-.212-.242-.215-.235-.224-.233-.23-.217-.233-.213-.242-.208-.24-.2-.251-.188-.256-.183-.258-.176-.269-.17-.274-.16-.276-.152-.285-.145-.287-.142-.3-.129-.3-.127-.308-.117-.314-.108-.319-.1-.328-.1-.33-.086-.339-.083-.344-.072-.353-.068-.355-.054-.364-.05-.369-.041-.378-.034-.38-.025-.389L445,368.7l-.011-.4,0-.411V350.643Zm68.495,0h7.307v29.793h-7.307Zm10.629,29.793.007-30.693L555.157,368.7V350.643h6.619v30.79l-23.846-18.874v17.877Zm74.351-4.713.308.079.31.072.307.068.3.061.3.054.308.05.3.043.3.039.3.032.3.025.3.022.3.011.3.011.3,0,.3,0,.3-.011.289-.018.283-.025.276-.032.271-.043.262-.047.258-.054.255-.065.244-.072.238-.079.235-.086.228-.1.219-.1.213-.115.2-.118.2-.125.187-.133.179-.142.169-.147.156-.158.145-.158.135-.169.12-.181.109-.183.093-.19.079-.2.07-.2.048-.208.034-.208.023-.213.007-.219-.007-.179-.023-.178-.034-.179-.047-.176-.061-.169-.068-.17-.084-.165-.091-.165-.1-.158-.111-.158-.12-.156-.129-.154-.14-.151-.151-.151-.156-.152-.165-.147-.172-.151-.183-.147-.194-.147-.2-.149-.212-.151-.215-.147-.231-.151-.233-.149-.247-.147-.255-.151-.265-.147-.276-.154-.281-.152-.289-.151-.3-.147-.31-.154-.2-.093-.179-.091-.328-.158-.145-.075-.133-.061-.124-.065-.12-.061-2.5-1.191-.219-.1-.215-.108-.212-.108-.206-.108-.2-.109-.2-.111-.2-.111-.19-.115-.19-.111-.186-.111-.179-.117-.179-.115-.172-.111-.17-.118-.169-.115-.161-.115-.154-.124-.158-.115-.151-.118-.147-.118-.142-.122-.143-.122-.133-.12-.133-.122-.127-.122-.125-.122-.12-.122-.117-.124-.117-.129-.111-.122-.106-.125-.1-.126-.1-.126-.1-.131-.1-.125-.088-.129-.084-.129-.086-.133-.077-.131-.075-.133-.075-.133-.068-.133-.066-.136-.066-.133-.057-.142-.057-.136-.054-.14-.05-.136-.047-.145-.048-.14-.038-.143-.039-.143-.036-.143-.034-.147-.027-.149-.027-.147-.025-.151-.018-.151-.016-.152-.016-.154-.011-.154-.007-.154,0-.16,0-.154,0-.215.009-.215.013-.206.023-.2.027-.2.03-.2.041-.2.041-.194.048-.186.059-.187.059-.188.068-.179.073-.183.081-.178.082-.176.088-.172.1-.172.1-.17.111-.165.111-.165.122-.165.131-.158.129-.163.14-.158.147-.154.154-.154.161-.152.165-.151.169-.147.185-.147.185-.145.194-.14.2-.14.2-.133.2-.133.208-.122L604,351.2l.219-.111.219-.115.224-.108.23-.1.231-.1.237-.093.238-.1.24-.082.246-.083.255-.083.255-.068.26-.072.262-.065.267-.061.273-.056.274-.054.28-.047.281-.043.289-.039.291-.036.3-.025.3-.025.3-.022.31-.014.31-.014.312,0,.326,0h.233l.242,0,.242.011.242.011.247.014.251.018.255.014.256.021.262.025.258.032.264.029.271.036.271.036.273.039.278.045.28.047.14.021.142.029.14.025.147.022.142.032.145.025.149.029.147.032.151.029.149.032.151.032.154.036.149.032.154.036.156.032.156.039.16.036.156.039.158.039.16.039.161.041.169.043.156.043.165.043.167.047.169.043.167.047.17.047.138.039v5.538l-.07-.039-.163-.079-.167-.079-.167-.079-.165-.077-.161-.075-.165-.075-.165-.075-.163-.072-.161-.072-.161-.068-.161-.068-.163-.068-.158-.065-.158-.066-.161-.065-.163-.061-.154-.061-.158-.061-.156-.057-.161-.057-.156-.054L616.2,355l-.154-.05-.154-.054-.16-.05-.307-.1-.3-.09-.3-.083-.285-.079-.291-.072-.282-.068-.274-.057-.273-.054-.265-.05-.262-.039-.258-.041-.251-.025-.249-.025-.242-.013-.239-.013-.233,0-.247,0-.244.007-.237.014-.231.023-.231.025-.217.032-.215.043-.212.043-.208.05-.2.061-.2.061-.19.072-.185.082-.181.083-.174.093-.169.1-.165.111-.151.115-.143.122-.136.129-.131.134-.12.143-.108.151-.1.158-.086.161-.075.17-.066.172-.054.179-.038.179-.029.185-.016.187-.009.2.014.265.041.274.068.269.095.26.118.251.142.244.161.235.188.222.108.115.1.1.111.106.115.1.117.1.127.1.125.093.133.093.14.09.143.091.145.086.151.083.158.086.16.079.163.079.163.075,4.325,2.032.332.158.326.158.319.152.308.158.3.151.3.151.29.152.278.151.276.151.265.147.26.147.255.149.246.147.24.143.231.143.222.145.217.14.212.143.206.14.192.136.192.138.179.136.172.136.167.133.161.129.149.133.145.131.138.129.131.126.122.126.115.122.108.124.1.122.1.122.1.126.095.126.093.131.084.129.086.133.081.129.074.133.073.133.07.138.07.136.065.14.057.136.059.14.054.149.052.143.048.143.045.143.038.151.041.149.03.154.034.151.029.158.025.156.018.158.02.161.014.165.014.161.007.163.005.172v.165l0,.267-.011.262-.016.255-.025.256-.029.247-.036.247-.043.242-.05.24-.054.233-.065.235-.066.226-.075.222-.086.224-.086.219-.093.215-.1.213-.106.2-.115.208-.118.206-.129.2-.136.2-.14.194-.147.192-.156.187-.165.186-.169.183-.172.181-.183.176-.19.176-.2.172-.2.17-.21.165-.222.161-.219.154-.228.156-.235.147-.233.14-.238.14-.246.131-.251.129-.255.118-.26.118-.26.108-.271.108-.271.1-.282.1-.283.093-.285.086-.292.079-.3.075-.3.072-.307.065-.312.061-.317.056-.325.05-.326.047-.33.039-.341.032-.341.032-.348.021-.348.018-.361.011-.362.011-.366,0-.253,0-.255,0-.255-.007-.26-.011-.265-.014-.264-.011-.269-.022-.273-.018-.274-.025-.28-.029-.28-.029-.285-.032-.285-.032-.29-.041-.3-.039-.294-.043-.147-.022-.151-.025-.151-.025-.149-.025-.154-.025-.152-.025-.154-.029-.152-.029-.156-.029-.156-.032-.16-.032-.16-.029-.161-.032-.163-.032-.161-.036-.165-.032-.163-.039-.165-.032-.163-.041-.169-.039-.169-.039-.169-.036-.17-.039-.174-.043-.174-.039-.172-.047-.174-.039-.174-.043-.178-.047-.021-.007-.572-6.475.039.022.2.1.2.1.2.1.2.09.2.09.192.09.192.088.192.082.188.083.183.083.185.075.185.075.179.075.174.075.179.065.174.074.172.065.172.065.167.065.169.057.163.057.167.057.161.05.161.05.154.05.156.05.309.088Zm-109.1,5.946-11.419-16.7-3.576,15.465h-6.314l7.216-30.516,14.093,20.706,14.093-20.706,7.216,30.516h-6.314l-3.578-15.465Zm-85.175-1.252,17.846-30.747,17.843,30.747h-7.558L429.234,362.7l-10.286,17.723Zm152.014,0,17.848-30.747,17.845,30.747h-7.558L581.25,362.7l-10.286,17.723Z" transform="translate(0 15.363)" fill="#2b4a81" fill-rule="evenodd"/>
  </g>
</svg>
