<svg xmlns="http://www.w3.org/2000/svg" xmlns:xlink="http://www.w3.org/1999/xlink" width="233.531" height="107.493" viewBox="0 0 233.531 107.493">
  <defs>
    <linearGradient id="linear-gradient" x1="0.5" y1="0.037" x2="0.5" y2="1.012" gradientUnits="objectBoundingBox">
      <stop offset="0" stop-color="#d1d2d3"/>
      <stop offset="0.5" stop-color="#fff"/>
      <stop offset="1" stop-color="#d1d2d3"/>
    </linearGradient>
    <linearGradient id="linear-gradient-2" x1="0.222" y1="-0.003" x2="0.77" y2="0.975" gradientUnits="objectBoundingBox">
      <stop offset="0.25" stop-color="#5795d1"/>
      <stop offset="0.75" stop-color="#a3c5e5"/>
    </linearGradient>
  </defs>
  <g id="logo-bauminas-aguas" transform="translate(-552.615 -227.064)">
    <g id="Grupo_1168" data-name="Grupo 1168" transform="translate(552.615 227.064)">
      <g id="Grupo_1166" data-name="Grupo 1166">
        <g id="Grupo_1165" data-name="Grupo 1165">
          <path id="Caminho_910" data-name="Caminho 910" d="M702.018,227.064c-30.043-.09-81.008,23.9-113.8,53.581s-35.031,53.82-4.989,53.911c14.59.044,34.105-5.6,54.082-14.8-.6-.076-1.214-.143-1.843-.2-14.477,6.238-28.173,10.125-38.7,10.489-25.541.889-22.551-19.088,6.32-44.786S675.794,238,701.337,237.114c18.684-.649,22.248,9.871,11.508,25.627h1.108C729.284,242.009,725.585,227.136,702.018,227.064Z" transform="translate(-545.387 -227.064)" fill-rule="evenodd" fill="url(#linear-gradient)"/>
          <path id="Caminho_911" data-name="Caminho 911" d="M686.119,277.97c-53.2,11.283-43.156-7.823-86.152,1.82l11.207-11.178c39.535-7.867,30.353,10.8,86.191-1.861L686.119,277.97Zm-13.253,13.223c-49.327,9.332-38.642-10.055-86.425,2.094l11.369-11.343c44.31-10.33,34.029,8.891,86.187-1.861l-11.131,11.11Z" transform="translate(-526.772 -196.856)" fill-rule="evenodd" fill="url(#linear-gradient-2)"/>
          <path id="Caminho_912" data-name="Caminho 912" d="M559.75,273.368h3.9l.3-.005.3-.012.291-.021.286-.03.277-.042.272-.049.261-.058.259-.069.254-.078.242-.088.236-.1.231-.109.222-.116.215-.127.21-.138.2-.148.192-.162.18-.168.166-.175.157-.187.15-.192.134-.2.118-.21.109-.219.1-.226.081-.233.072-.238.055-.245.044-.25.032-.254.016-.259.009-.265-.009-.258-.016-.256-.032-.249-.044-.245-.055-.238-.071-.235-.079-.226-.1-.22-.108-.212-.122-.2-.129-.2-.145-.183-.157-.18-.164-.168-.178-.159-.187-.152-.194-.139-.206-.131-.215-.12-.222-.109-.229-.1-.236-.09-.243-.083-.252-.071-.261-.064-.265-.055-.277-.046-.28-.037-.289-.028-.3-.021-.3-.012-.309,0h-3.9v9.164Zm0-13.57H563l.293,0,.291-.011.286-.021.275-.026.27-.035.265-.042.254-.051.251-.058.249-.067.235-.078.229-.083.224-.093.217-.1.206-.115.2-.12.194-.131.187-.143.175-.148.168-.161.153-.166.145-.178.134-.185.116-.194.113-.2.093-.208.081-.217.071-.222.058-.228.04-.233.032-.236.016-.243.009-.243-.005-.245-.019-.24-.025-.233-.042-.229-.056-.224-.067-.215-.079-.212-.094-.2-.106-.2-.116-.185-.132-.178-.138-.168-.155-.157-.162-.145-.171-.139-.185-.125-.189-.115-.2-.106-.208-.1-.217-.086-.226-.078-.235-.074-.247-.067-.256-.055-.265-.049-.272-.044-.286-.033-.293-.03-.3-.023-.311-.014-.323-.012-.33,0H559.75V259.8Zm-7.135,17.714V247.774h10.63l.392,0,.386.007.381.007.374.012.365.018.36.021.349.025.349.028.342.034.332.035.328.041.319.041.318.049.307.049.305.055.295.058.288.062.282.067.275.067.27.072.265.076.254.081.251.083.243.083.236.09.231.093.222.1.217.1.213.1.2.108.2.108.192.115.187.115.178.12.169.12.166.123.159.129.153.131.145.134.141.136.131.136.131.143.123.143.113.148.108.152.106.152.1.159.09.159.09.164.081.168.074.169.072.175.064.176.062.182.053.183.049.189.041.2.037.194.035.2.025.206.019.208.014.215.009.22.005.219-.005.268-.016.261-.027.25-.041.249-.042.238-.055.236-.069.228-.078.226-.086.215-.1.212-.108.208-.116.2-.129.2-.138.192-.146.191-.159.187-.173.182-.18.175-.2.173-.2.171-.219.162-.229.162-.242.155a18.866,18.866,0,0,1-5.532,2.1,19.609,19.609,0,0,1,5.513,1.408l.152.074.15.078.145.081.145.083.139.085.139.086.136.088.134.092.129.1.125.1.125.1.12.1.118.1.12.1.113.109.111.111.109.115.106.115.1.113.1.116.1.12.088.118.09.12.083.123.083.123.079.122.072.129.072.125.067.131.064.131.062.132.06.132.051.138.053.136.044.138.048.141.042.143.035.145.037.145.032.148.026.15.025.152.023.154.019.157.012.155.012.161.011.162.005.164,0,.164,0,.259-.014.252-.018.249-.025.243-.032.238-.035.235-.048.229-.051.226-.062.22-.064.213-.072.212-.078.208-.085.2-.092.2-.1.2-.106.19-.111.187-.118.184-.129.18-.136.176-.138.171-.15.171-.153.166-.164.161-.168.16-.182.157-.182.15-.2.15-.2.145-.21.143-.214.139-.227.134-.231.131-.238.127-.249.123-.252.122-.266.116-.266.113-.277.106-.289.108-.291.1-.3.1-.31.09-.316.09-.328.083-.33.081-.339.074-.349.072-.356.067-.365.062-.37.062-.381.053-.385.051-.4.046-.4.042-.413.037-.418.032-.422.03-.436.023-.439.019-.448.016-.455.011-.464.005-.473.005Zm63.315-29.738V264.2l0,.263.007.265.005.259.016.256.012.25.023.249.026.247.026.24.03.236.037.235.035.231.046.226.046.22.055.221.056.215.055.21.064.21.069.2.072.2.072.2.08.192.083.189.088.187.09.182.1.175.1.173.1.173.111.164.113.162.116.155.124.152.123.146.127.143.136.141.134.136.145.13.145.129.15.12.153.118.159.111.164.108.164.1.169.1.176.092.175.088.183.085.182.078.185.074.194.071.2.063.2.058.2.06.2.046.206.048.213.042.212.037.217.032.22.028.224.025.226.019.231.016.229.011.238.005.24,0,.227,0,.228-.005.227-.011.221-.014.219-.018.217-.023.215-.025.208-.03.208-.035.206-.037.2-.046.2-.048.2-.051.191-.055.194-.06.189-.063.182-.071.182-.072.176-.078.178-.081.171-.088.166-.09.168-.1.161-.1.161-.1.15-.108.155-.113.146-.116.145-.122.141-.127.136-.129.134-.134.129-.141.125-.141.118-.145.118-.148.111-.154.108-.155.1-.162.1-.162.1-.169.086-.169.09-.173.079-.178.081-.18.072-.184.07-.187.065-.191.06-.194.058-.2.053-.2.048-.2.046-.206.041-.21.037-.208.035-.219.027-.219.026-.221.021-.224.016-.228.016-.231.005-.233.007-.238,0-.236V247.774h6.35v17.167l0,.409-.014.4-.018.392-.025.392-.039.379-.04.374-.051.37-.055.362-.063.356-.076.349-.078.344-.086.337-.094.333-.1.326-.109.318-.116.316-.124.305-.136.3-.136.295-.145.291-.157.286-.162.279-.169.273-.175.266-.185.261-.191.259-.2.25-.2.249-.217.24-.22.235-.228.231-.24.224-.242.221-.25.21-.254.2-.261.2-.263.192-.275.183-.28.178-.282.171-.291.162-.3.157-.3.15-.31.143-.314.138-.323.129-.328.123-.337.115-.34.109-.348.1-.353.1-.36.088-.369.083-.374.072-.379.067-.386.06-.393.055-.4.046-.4.039-.414.032-.422.025-.425.019-.43.011-.439,0-.443,0-.437-.011-.429-.019-.423-.025-.418-.032-.411-.039-.4-.044-.4-.055-.39-.06-.385-.067-.376-.074-.369-.078-.367-.09-.356-.1-.346-.1-.347-.109-.333-.115-.332-.12-.323-.132-.316-.132-.317-.143-.3-.15-.3-.154-.291-.164-.288-.169-.28-.175-.273-.185-.266-.187-.261-.2-.256-.2-.249-.208-.242-.217-.233-.224-.233-.228-.219-.235-.212-.238-.206-.242-.2-.252-.187-.256-.185-.259-.175-.266-.169-.273-.159-.275-.152-.284-.146-.289-.141-.295-.13-.305-.123-.305-.117-.312-.109-.319-.1-.326-.1-.332-.085-.339-.081-.342-.074-.353-.065-.355-.055-.363-.049-.37-.042-.376-.034-.381-.026-.386-.021-.4-.011-.4,0-.411v-17.21ZM684.3,277.512V247.774h7.3v29.738Zm10.609,0,.009-30.635L718.706,265.8V247.774h6.608v30.732l-23.8-18.841v17.846Zm74.217-4.708.309.081.307.072.309.067.3.062.3.055.307.049.3.042.305.039.3.034.3.025.3.021.3.012.3.011.3,0,.3-.005.3-.009.287-.018.282-.026.275-.034.27-.042.265-.046.259-.053.249-.067.245-.069.24-.079.233-.086.228-.1.219-.1.212-.111.2-.118.2-.125.189-.134.175-.139.169-.148.155-.155.146-.161.132-.169.122-.18.108-.18.1-.192.078-.2.069-.2.051-.206.032-.21.025-.213.007-.217-.007-.178-.025-.178-.032-.178-.048-.173-.062-.173-.069-.169-.083-.164-.093-.162-.1-.16-.109-.157-.12-.157-.127-.154-.141-.152-.15-.152-.155-.148-.164-.148-.175-.15-.182-.148-.194-.146-.2-.148-.213-.148-.215-.146-.227-.15-.235-.148-.249-.148-.252-.15-.266-.146-.273-.155-.28-.15-.291-.15-.3-.152-.309-.152-.2-.094-.178-.088-.328-.16-.146-.072-.132-.064-.122-.062-.122-.062-2.5-1.189-.219-.1-.215-.108-.208-.108-.21-.108-.2-.109-.2-.111-.2-.109-.19-.115-.191-.111-.182-.113-.183-.113-.176-.115-.175-.113-.169-.116-.166-.116-.162-.116-.157-.118-.155-.116-.15-.12-.147-.118-.143-.122-.143-.12-.134-.118-.129-.123-.129-.123-.127-.122-.118-.123-.116-.122-.115-.127-.111-.123-.106-.125-.1-.125-.1-.125-.1-.129-.094-.127-.086-.129-.083-.129-.088-.132-.078-.132-.074-.13-.076-.134-.067-.131-.069-.138-.063-.134-.056-.138-.06-.138-.053-.138-.049-.139-.046-.141-.049-.141-.039-.143-.037-.143-.037-.145-.034-.146-.028-.148-.025-.148-.026-.15-.019-.15-.016-.153-.016-.153-.011-.152-.005-.157-.005-.157,0-.157,0-.215.009-.212.012-.206.025-.2.026-.2.03-.2.041-.2.044-.192.048-.189.058-.187.058-.185.069-.182.074-.182.078-.178.083-.175.09-.171.1-.171.1-.169.113-.168.111-.164.122-.164.129-.159.13-.161.139-.159.148-.153.153-.153.157-.152.168-.15.169-.146.182-.146.187-.145.19-.141.2-.139.2-.134.2-.131.21-.125.212-.122.217-.115.219-.113.224-.109.227-.1.233-.1.233-.093.24-.092.24-.085.247-.083.25-.078.258-.072.259-.069.261-.067.266-.058.27-.056.275-.053.279-.048.282-.041.289-.041.289-.035.295-.026.3-.026.3-.019.309-.014.31-.014.314-.005.323,0h.235l.24,0,.242.009.24.011.249.014.25.018.256.016.254.023.263.025.258.03.263.03.27.034.272.037.272.042.279.041.279.049.139.021.141.025.139.026.145.023.145.03.145.026.146.032.148.03.146.03.152.032.15.032.153.035.152.033.152.034.155.035.155.039.161.037.157.037.157.041.159.041.162.039.164.042.159.041.166.046.166.044.167.046.166.046.169.046.141.041v5.525l-.071-.037-.164-.079-.168-.079-.164-.078-.168-.078-.16-.076-.164-.076-.166-.072-.159-.072-.162-.072-.164-.069-.161-.069-.161-.067-.159-.065-.159-.064-.162-.063-.157-.062-.157-.062-.159-.062-.155-.058-.16-.055-.155-.056-.155-.055-.157-.053-.152-.051-.161-.053-.3-.1-.3-.092-.3-.085-.286-.078-.287-.072-.282-.067-.277-.058-.27-.055-.265-.048-.259-.042-.259-.035-.251-.028-.249-.025-.244-.014-.238-.012-.231,0-.249,0-.242.011-.236.014-.231.021-.227.025-.221.034-.215.039-.21.044-.206.051-.2.058-.2.065-.189.071-.185.081-.182.085-.173.093-.169.1-.162.109-.152.115-.145.122-.136.129-.129.134-.12.146-.108.15-.1.155-.086.162-.074.169-.063.173-.053.178-.041.18-.028.185-.014.185-.009.2.012.266.042.273.069.266.094.261.118.252.143.243.161.235.185.219.109.115.1.1.111.1.115.1.117.1.127.1.125.093.132.093.141.09.143.09.141.086.152.085.159.085.161.079.162.079.162.076,4.318,2.027.332.159.325.155.317.153.309.155.3.152.3.152.289.15.282.152.272.15.268.146.259.148.252.148.245.145.24.145.231.145.224.141.215.143.21.139.2.139.192.139.19.138.182.134.171.136.166.134.161.131.15.132.145.127.138.131.131.127.122.123.113.124.111.122.1.122.1.124.1.125.093.125.094.129.083.131.085.131.083.129.074.134.072.132.071.138.07.136.064.139.056.138.06.141.053.143.051.145.049.145.044.146.039.148.04.148.032.152.034.153.028.157.025.153.019.161.02.159.012.164.016.162.007.162.007.171v.166l0,.265-.012.263-.016.256-.023.254-.032.247-.037.249-.041.242-.051.238-.055.235-.063.231-.065.228-.078.224-.083.222-.086.217-.1.217-.1.21-.106.208-.113.206-.122.2-.127.2-.134.194-.143.194-.146.19-.157.191-.159.183-.173.183-.169.178-.185.178-.189.175-.2.171-.2.169-.208.164-.22.162-.219.155-.229.152-.233.148-.233.143-.238.136-.247.131-.25.129-.252.118-.259.118-.261.111-.27.106-.27.1-.284.1-.281.092-.282.086-.293.081-.3.076-.3.069-.307.067-.312.058-.316.055-.323.053-.328.044-.328.039-.339.035-.342.03-.344.023-.353.018-.356.012-.362.009-.367,0-.252,0-.252,0-.258-.007-.258-.009-.265-.014-.265-.014-.266-.019-.27-.019-.277-.025-.279-.028-.281-.028-.284-.032-.284-.034-.289-.04-.3-.039-.295-.044-.146-.023-.15-.021-.15-.025-.148-.026-.153-.026-.154-.025-.153-.03-.152-.026-.157-.032-.155-.03-.161-.032-.157-.03-.164-.032-.161-.034-.161-.035-.164-.032-.164-.037-.166-.035-.164-.039-.166-.037-.168-.039-.169-.041-.171-.039-.171-.041-.173-.042-.175-.044-.175-.042-.171-.044-.176-.046-.021-.005-.573-6.463.041.019.2.1.2.094.2.1.2.09.194.092.194.09.19.085.191.085.189.081.182.083.185.076.185.078.178.072.175.074.178.069.173.069.171.065.173.064.167.064.168.058.164.058.164.056.161.051.161.051.157.049.155.048.305.088.31.085Zm-108.9,5.939-11.4-16.67-3.569,15.439h-6.3l7.2-30.459,14.066,20.669,14.07-20.669,7.2,30.459h-6.3l-3.568-15.439-11.4,16.67ZM575.2,277.493l17.816-30.69,17.809,30.69h-7.545L593.016,259.8l-10.27,17.689Zm151.737,0L744.75,246.8l17.813,30.69H755.02L744.75,259.8l-10.265,17.689Z" transform="translate(-552.615 -212.05)" fill="#395386" fill-rule="evenodd"/>
        </g>
      </g>
      <g id="Grupo_1167" data-name="Grupo 1167" transform="translate(171.978 73.968)">
        <path id="Caminho_913" data-name="Caminho 913" d="M657.785,280.07H653.2l-.991,2.6h-2.1l4.31-10.847h2.147l4.309,10.847h-2.1ZM657.1,278.3l-1.609-4.26-1.626,4.26Zm-1.122-9.3h1.595l-1.514,1.9h-1.088Z" transform="translate(-650.108 -268.996)" fill="#5795d1"/>
        <path id="Caminho_914" data-name="Caminho 914" d="M663.344,274.742v5.772c0,1.106-.471,2.976-3.659,2.976a8.044,8.044,0,0,1-2.343-.325v-1.739a6.72,6.72,0,0,0,2.115.325c1.935,0,1.935-.716,1.935-1.237v-.439a6.27,6.27,0,0,1-1.236.131c-2.359,0-3.659-1.415-3.659-3.967,0-3.757,2.471-4.163,3.528-4.163C662.482,272.075,663.344,273.458,663.344,274.742Zm-1.951-.016c0-.732-.635-.912-1.367-.912-.975,0-1.577.619-1.577,2.456,0,1.953.683,2.343,1.773,2.343a5.939,5.939,0,0,0,1.171-.115Z" transform="translate(-645.226 -266.644)" fill="#5795d1"/>
        <path id="Caminho_915" data-name="Caminho 915" d="M668.535,272.149v4.438c0,2.39-1.365,3.8-3.674,3.8-2.293,0-3.66-1.415-3.66-3.8v-4.438h1.969v4.7c0,1.3.487,1.836,1.692,1.836s1.706-.536,1.706-1.836v-4.7Z" transform="translate(-641.634 -266.587)" fill="#5795d1"/>
        <path id="Caminho_916" data-name="Caminho 916" d="M672.817,275.522v2.2c0,1.316-.894,2.731-3.415,2.731-2.57,0-3.48-1.431-3.48-2.78,0-.6.243-2.552,3.5-2.552a10.008,10.008,0,0,1,1.43.113c0-.877-.455-1.528-1.723-1.528a6.375,6.375,0,0,0-2.374.406V272.53a6.627,6.627,0,0,1,2.489-.455C671.548,272.075,672.817,273.294,672.817,275.522Zm-1.951.944a8.032,8.032,0,0,0-1.171-.1c-1.318,0-1.838.39-1.838,1.057,0,.845.5,1.3,1.53,1.3,1.088,0,1.48-.487,1.48-1.235Z" transform="translate(-638.027 -266.644)" fill="#5795d1"/>
        <path id="Caminho_917" data-name="Caminho 917" d="M676.168,278.076c0,1.349-1.169,2.373-3.024,2.373a5.119,5.119,0,0,1-2.57-.667v-1.739a4.129,4.129,0,0,0,2.293.716c1.252,0,1.349-.342,1.349-.781,0-1.334-3.87-.552-3.87-3.366,0-1.708,1.4-2.537,3.009-2.537a4.379,4.379,0,0,1,2.21.586v1.48a4.375,4.375,0,0,0-1.87-.39c-.813,0-1.4.162-1.4.683C672.3,275.686,676.168,274.758,676.168,278.076Z" transform="translate(-634.645 -266.644)" fill="#5795d1"/>
      </g>
    </g>
  </g>
</svg>
