<svg xmlns="http://www.w3.org/2000/svg" xmlns:xlink="http://www.w3.org/1999/xlink" width="233.334" height="107.415" viewBox="0 0 233.334 107.415">
  <defs>
    <linearGradient id="linear-gradient" x1="-533.067" y1="-35.094" x2="-532.853" y2="-35.094" gradientUnits="objectBoundingBox">
      <stop offset="0" stop-color="#d9d6d8"/>
      <stop offset="0.5" stop-color="#fff"/>
      <stop offset="1" stop-color="#d9d6d8"/>
    </linearGradient>
    <linearGradient id="linear-gradient-2" x1="-60.686" y1="-11.659" x2="-60.661" y2="-11.659" xlink:href="#linear-gradient"/>
    <linearGradient id="linear-gradient-3" x1="-40.293" y1="-10.885" x2="-40.277" y2="-10.885" xlink:href="#linear-gradient"/>
    <linearGradient id="linear-gradient-4" x1="-46.762" y1="-47.16" x2="-46.782" y2="-47.209" gradientUnits="objectBoundingBox">
      <stop offset="0" stop-color="#00924c"/>
      <stop offset="0.297" stop-color="#00924c"/>
      <stop offset="0.569" stop-color="#007e47"/>
      <stop offset="0.759" stop-color="#006f44"/>
      <stop offset="1" stop-color="#006f44"/>
    </linearGradient>
    <linearGradient id="linear-gradient-5" x1="-46.551" y1="-48.038" x2="-46.571" y2="-48.088" xlink:href="#linear-gradient-4"/>
  </defs>
  <g id="logo-bauminas-agro" transform="translate(-552.615 -327.642)">
    <g id="Grupo_1158" data-name="Grupo 1158" transform="translate(722.393 402.062)">
      <path id="Caminho_867" data-name="Caminho 867" d="M656.776,378.2h-4.84l-1.253,3.273h-1.741l4.63-11.611h1.585l4.614,11.611H658.03Zm-4.265-1.5H656.2l-1.845-4.822Z" transform="translate(-648.942 -369.866)" fill="#009248"/>
      <path id="Caminho_868" data-name="Caminho 868" d="M662.509,374.188v6.456c0,1.394-.661,3.047-3.812,3.047a9.225,9.225,0,0,1-2.577-.365v-1.516a8.186,8.186,0,0,0,2.438.384c2.367,0,2.367-.975,2.367-1.551v-.765a6.689,6.689,0,0,1-1.759.243c-2.489,0-3.863-1.514-3.863-4.248,0-2.524,1.079-4.438,3.726-4.438C661.1,371.437,662.509,372.394,662.509,374.188Zm-1.584-.106c0-.314,0-1.218-1.9-1.218-.992,0-2.126.33-2.126,3.01,0,2.473,1.08,2.8,2.263,2.8a4.657,4.657,0,0,0,1.759-.331Z" transform="translate(-644.092 -368.668)" fill="#009248"/>
      <path id="Caminho_869" data-name="Caminho 869" d="M661.948,380.272h-1.6v-7.956a11.074,11.074,0,0,1,4.23-.869v1.461a11.506,11.506,0,0,0-2.63.367Z" transform="translate(-640.245 -368.66)" fill="#009248"/>
      <path id="Caminho_870" data-name="Caminho 870" d="M671.146,375.93c0,3.691-2.228,4.473-4.091,4.473s-4.091-.783-4.091-4.473,2.228-4.473,4.091-4.473S671.146,372.24,671.146,375.93Zm-1.6,0c0-2.7-1.185-3.063-2.491-3.063s-2.489.365-2.489,3.063,1.184,3.063,2.489,3.063S669.545,378.629,669.545,375.93Z" transform="translate(-638.25 -368.653)" fill="#009248"/>
    </g>
    <path id="Caminho_871" data-name="Caminho 871" d="M566.2,361.183l-.029-.249-.043-.244-.055-.238-.072-.235-.077-.226-.1-.219-.109-.21-.12-.2-.129-.2-.145-.185-.156-.179-.165-.168-.176-.158-.186-.151-.2-.14-.2-.129-.215-.12-.222-.111-.228-.1-.237-.09-.244-.083-.25-.072-.264-.063-.263-.054-.274-.047-.282-.034-.29-.031-.3-.02-.3-.013-.31,0h-3.9v9.157h3.9l.3-.005.3-.013.29-.02.289-.03.274-.041.273-.052.263-.055.258-.07.253-.077.24-.088.237-.1.229-.107.222-.117.215-.125.21-.138.2-.149.192-.161.179-.169.165-.176.16-.185.147-.194.135-.2.118-.208.107-.221.1-.226.081-.231.074-.238.055-.244.043-.251.029-.255.018-.258.009-.265-.009-.256Z" transform="translate(3.084 22.546)" fill="none"/>
    <path id="Caminho_872" data-name="Caminho 872" d="M588.534,363.073l.023.25.026.245.026.241.03.236.037.233.035.231.046.224.048.224.053.22.055.215.055.21.067.21.065.2.07.2.076.2.079.194.083.187.085.189.092.182.1.174.1.173.1.173.107.164.117.16.118.157.122.152.123.145.127.145.136.141.136.136.143.13.144.129.15.118.155.118.157.111.166.111.164.1.169.1.174.092.176.088.18.085.183.079.187.072.19.07.2.065.2.055.2.062.2.046.208.048.211.042.215.037.215.032.219.028.224.025.229.021.229.014.229.009.238.007.24,0,.226,0,.229-.007.226-.009.224-.014.215-.018.217-.023.217-.025.208-.03.208-.037.206-.035.2-.044.2-.049.2-.049.192-.056.19-.06.192-.065.18-.069.183-.071.174-.078.178-.083.171-.088.164-.09.169-.1.162-.1.157-.1.155-.108.153-.114.148-.115.143-.122.138-.125.137-.13.134-.136.129-.139.125-.141.118-.145.116-.146.111-.155.109-.155.1-.16.1-.166.1-.167.086-.169.088-.173.081-.178.083-.18.069-.183.071-.189.067-.187.058-.2.062-.2.051-.2.049-.2.042-.2.042-.21.037-.21.033-.217.032-.217.021-.22.023-.227.016-.226.014-.231.009-.233.007-.238V351.206c-5.536,3.747-10.876,7.7-15.871,11.795Z" transform="translate(27.386 17.968)" fill="none"/>
    <path id="Caminho_873" data-name="Caminho 873" d="M560.2,358.264l.289-.011.283-.018.278-.029.271-.034.26-.043.257-.05.251-.059.247-.066.233-.079.228-.082.226-.093.217-.1.2-.115.2-.12.2-.129.185-.143.176-.149.165-.159.154-.165.147-.179.132-.185.117-.193.113-.2.093-.21.079-.217.072-.222.057-.228.043-.233.029-.235.018-.242.007-.246,0-.244-.022-.24-.025-.233-.039-.228-.057-.226-.068-.214-.076-.212-.1-.2-.1-.2-.118-.185-.129-.179-.14-.165-.156-.158-.159-.145-.172-.14-.186-.125-.187-.113-.2-.108-.208-.1-.219-.086-.223-.079-.237-.072-.244-.066-.258-.057-.265-.048-.271-.045-.285-.032-.291-.03-.3-.023-.312-.014-.323-.011-.326,0H556.66v8.221h3.248Z" transform="translate(3.084 17.085)" fill="none"/>
    <g id="Grupo_1162" data-name="Grupo 1162" transform="translate(552.615 327.642)">
      <g id="Grupo_1159" data-name="Grupo 1159" transform="translate(16.675)">
        <path id="Caminho_874" data-name="Caminho 874" d="M588.716,367.913l-.012-.032-.118-.312-.109-.319-.1-.324-.1-.331-.087-.337-.083-.344-.072-.353-.065-.356-.055-.36-.051-.372-.041-.374-.035-.382-.025-.388-.021-.395-.012-.4,0-.414V351.788q-3.929,2.982-7.635,6.086l6.791,11.7Q587.783,368.748,588.716,367.913Z" transform="translate(-548.333 -309.23)" fill="url(#linear-gradient)"/>
        <path id="Caminho_875" data-name="Caminho 875" d="M596.729,407.626c-23.193.805-22.837-15.611-.922-37.887L588.824,357.7c-.208.187-.425.372-.631.559-32.772,29.654-35,53.776-4.986,53.873,14.578.041,34.076-5.594,54.037-14.791-.6-.078-1.213-.143-1.84-.2C620.937,403.377,607.253,407.263,596.729,407.626Z" transform="translate(-562.076 -304.72)" fill="url(#linear-gradient-2)"/>
        <path id="Caminho_876" data-name="Caminho 876" d="M588.51,380.012l.007.266.007.256.012.257.011.178c4.995-4.094,10.335-8.048,15.871-11.795v-5.836h6.347v1.685c24.707-15.607,52.135-26.707,70.3-27.34,18.667-.649,22.229,9.863,11.5,25.609h1.109c15.318-20.718,11.62-35.578-11.925-35.65h-.167c-24.3,0-62.173,15.667-93.073,37.32v14.789Z" transform="translate(-541.922 -327.642)" fill="url(#linear-gradient-3)"/>
      </g>
      <g id="Grupo_1160" data-name="Grupo 1160" transform="translate(0 34.639)">
        <path id="Caminho_877" data-name="Caminho 877" d="M569.8,376.74l.317-.09.309-.09.3-.1.291-.1.287-.106.275-.106.27-.115.266-.115.252-.123.247-.123.24-.125.231-.134.224-.134.215-.139.208-.139.2-.146.2-.148.183-.152.182-.157.164-.16.167-.16.153-.166.15-.171.136-.171.136-.176.13-.18.118-.185.111-.185.108-.189.1-.2.092-.2.085-.2.078-.208.074-.21.063-.215.062-.22.051-.227.046-.229.037-.233.034-.236.021-.245.019-.249.011-.252,0-.259,0-.164,0-.166-.011-.162-.01-.159-.014-.157-.018-.155-.021-.155-.028-.152-.026-.148-.032-.15-.035-.145-.037-.145-.041-.141-.049-.143-.042-.136-.055-.136-.049-.139-.062-.13-.06-.134-.063-.129-.069-.13-.071-.127-.074-.127-.078-.12-.083-.127-.085-.125-.088-.118-.09-.118-.1-.118-.1-.116-.106-.113-.106-.115-.107-.115-.111-.113-.115-.108-.12-.106-.118-.1-.118-.1-.125-.1-.125-.1-.13-.1-.136-.09-.132-.088-.139-.086-.143-.086-.141-.085-.145-.079-.15-.076-.155-.076a19.621,19.621,0,0,0-5.5-1.408,18.859,18.859,0,0,0,5.527-2.09l.24-.155.231-.164.217-.162.2-.171.194-.171.183-.174.169-.183.157-.185.151-.192.136-.192.127-.2.116-.2.109-.208.093-.213.088-.215.079-.224.063-.227.056-.234.044-.241.041-.245.025-.254.018-.259,0-.268,0-.219-.011-.22-.014-.215-.018-.208-.025-.2-.034-.2-.039-.2-.044-.194-.046-.19-.051-.182-.063-.181-.065-.178-.07-.171-.076-.171-.079-.167-.09-.162-.092-.16-.1-.159-.1-.153-.109-.15-.113-.15-.123-.141-.129-.145-.132-.136-.139-.136-.146-.134-.155-.13-.157-.127-.166-.123-.169-.12-.178-.12-.187-.115-.189-.116-.2-.108-.2-.106-.212-.1-.217-.1-.224-.1-.229-.1-.24-.088-.24-.083-.249-.085-.259-.081-.261-.074-.27-.072-.277-.069-.282-.067-.287-.062-.294-.056-.3-.055-.308-.051-.312-.048-.321-.042-.328-.039-.333-.035-.342-.035-.347-.026-.351-.025-.358-.021-.366-.016-.374-.016-.377-.007-.388-.007-.389,0H552.615v29.718h9.223l.474,0,.462-.009.456-.01.446-.016.441-.018.432-.025.425-.03.414-.032.416-.037.4-.042.395-.046.384-.051.384-.053.367-.062.365-.062.358-.067.347-.07.338-.076.331-.081ZM559.744,351.69h3.067l.326,0,.322.011.312.014.3.023.291.032.286.032.27.044.266.049.257.056.243.067.238.072.222.079.219.085.208.1.2.107.187.115.187.125.171.139.16.145.155.159.141.166.129.178.118.185.1.2.1.2.076.212.067.213.058.226.039.227.027.234.021.24,0,.243-.007.247-.018.241-.03.234-.042.234-.058.227-.071.222-.079.217-.093.21-.113.2-.116.194-.132.185-.148.178-.153.166-.166.16-.176.148-.185.143-.194.13-.2.12-.2.115-.217.1-.227.093-.227.083-.233.077-.248.067-.25.06-.255.049-.261.042-.271.035-.277.028-.284.018-.289.011-.3.005h-3.247Zm9.556,17.375-.017.257-.028.256-.044.25-.055.245-.074.238-.081.231-.1.226-.106.222-.12.208-.134.2-.146.192-.16.185-.164.176-.18.169-.192.16-.2.15-.21.137-.215.125-.222.116-.231.107-.236.1-.24.088-.254.078-.257.069-.264.056-.271.051-.275.042-.289.03-.289.019-.3.014-.3.005h-3.9v-9.158h3.9l.31,0,.3.012.3.019.291.032.282.033.275.046.263.055.264.063.248.071.245.083.236.09.227.1.222.111.215.12.2.129.2.141.187.15.176.159.164.167.157.18.144.185.129.2.122.2.109.21.1.219.076.226.072.234.055.24.044.243.028.248.017.257.009.256Z" transform="translate(-552.615 -346.837)" fill="#2c4b80"/>
        <path id="Caminho_878" data-name="Caminho 878" d="M657.06,366.3l-23.773-18.914L633.28,378h6.6V360.168l23.785,18.825v-30.71h-6.6Z" transform="translate(-491.107 -347.226)" fill="#2c4b80"/>
        <path id="Caminho_879" data-name="Caminho 879" d="M651.438,378.009h7.542l10.258-17.676,10.26,17.676h7.54l-17.8-30.663Z" transform="translate(-477.261 -347.256)" fill="#2c4b80"/>
        <path id="Caminho_880" data-name="Caminho 880" d="M694.831,369.31l-.007-.163-.015-.161-.012-.163-.02-.16-.018-.159-.027-.154-.028-.156-.034-.154-.032-.151-.04-.149-.038-.149-.047-.145-.045-.145-.054-.143-.054-.144-.057-.141-.059-.138-.063-.136-.072-.136-.068-.138-.072-.135-.075-.133-.081-.129-.088-.131-.083-.131-.091-.126-.095-.127-.1-.124-.1-.126-.1-.12-.109-.122-.113-.124-.124-.122-.128-.127-.14-.131-.143-.126-.151-.133-.157-.131-.167-.136-.174-.133-.181-.136-.19-.136-.19-.14-.2-.138-.212-.14-.214-.142-.224-.144-.231-.144-.239-.145-.247-.145-.251-.147-.258-.147-.269-.147-.271-.151-.282-.151-.291-.151-.3-.149-.3-.152-.307-.158-.317-.152-.325-.156-.332-.158-4.316-2.026-.161-.075-.163-.079-.159-.079-.158-.084-.151-.084-.143-.086-.143-.091-.14-.09-.131-.093-.126-.091-.127-.1-.116-.1-.115-.1-.111-.1-.1-.1-.108-.113-.183-.221-.163-.233-.141-.244-.119-.253-.093-.26-.07-.267-.041-.273-.012-.267.007-.2.018-.186.027-.185.04-.179.052-.179.065-.172.075-.17.084-.16.1-.156.108-.151.12-.145.129-.135.136-.129.145-.122.151-.115.163-.108.169-.1.172-.093.183-.084.183-.083.188-.07.2-.064.2-.057.2-.052.212-.045.215-.038.221-.034.228-.025.232-.021.236-.013.24-.011.247,0,.229,0,.241.013.245.014.246.023.249.027.26.038.26.041.264.048.271.056.278.059.28.065.287.072.285.079.3.082.3.093.3.1.161.052.152.05.155.052.156.057.156.054.16.056.156.059.158.061.156.063.158.059.161.065.158.063.158.066.163.068.159.068.163.068.163.073.16.07.165.073.163.075.161.075.165.077.165.077.168.081.163.079.07.038V348.7l-.14-.041-.17-.045-.165-.047-.169-.045-.165-.045-.165-.045-.158-.041-.165-.043-.161-.038-.158-.041-.158-.04-.157-.039-.16-.034-.156-.041-.156-.032-.151-.036-.153-.034-.152-.036-.15-.031-.149-.03-.147-.031-.147-.031-.147-.032-.145-.025-.145-.029-.145-.027-.138-.023-.144-.025-.136-.023-.28-.047-.278-.043-.272-.041-.271-.036-.269-.034-.264-.03-.257-.031-.263-.023-.255-.023-.253-.016-.253-.016-.245-.014-.242-.011-.242-.011-.238,0h-.235l-.323,0-.314.006-.309.014-.31.014-.3.02-.3.025-.291.029-.29.034-.29.041-.282.039-.278.048-.274.054-.269.054-.269.059-.26.066-.26.07-.256.072-.249.079L678,348.1l-.24.084-.24.093-.234.093-.231.1-.228.1-.226.109-.217.113-.215.115-.213.122-.208.126-.2.127-.2.135-.2.142-.192.14-.188.145-.18.147-.168.147-.167.149-.161.151-.153.154-.145.154-.14.158-.13.161-.129.156-.122.165-.113.165-.11.167-.1.169-.1.172-.088.171-.084.176-.077.177-.075.181-.068.181-.059.186-.059.187-.045.188-.047.192-.036.2-.032.2-.027.2-.023.2-.013.2-.011.213,0,.215,0,.154,0,.158.009.156.011.152.014.154.016.152.02.151.025.151.025.147.027.147.036.149.034.143.039.142.04.143.047.14.048.144.049.138.054.138.059.136.058.138.063.134.068.136.066.131.077.134.074.131.079.133.086.129.083.131.09.129.093.126.1.129.1.125.1.124.1.126.111.125.115.126.115.122.12.122.127.124.127.122.129.122.134.122.14.118.144.122.147.118.15.118.156.117.156.12.159.117.171.113.168.118.172.111.177.115.183.115.181.113.192.111.19.115.2.108.2.111.2.109.208.106.208.109.215.106.22.106,2.494,1.187.12.063.122.063.132.061.143.074.332.16.175.09.2.093.308.152.3.151.29.151.28.151.274.152.265.149.253.149.247.149.235.145.228.151.215.147.212.149.2.147.193.147.181.147.174.151.163.147.156.151.149.151.141.151.127.154.12.156.111.156.1.161.092.161.082.165.07.17.063.172.047.172.032.178.025.179.007.177-.007.217-.025.214-.032.21-.052.2-.066.2-.079.2-.095.194-.106.179-.122.181-.134.169-.145.161-.156.154-.169.147-.174.142-.19.131-.2.126-.207.12-.212.111-.219.1-.226.1-.235.086-.238.079-.244.07-.249.066-.26.052-.262.047-.273.041-.274.034-.282.025-.287.018-.3.011-.3,0-.3,0-.3-.012-.3-.013-.3-.02-.3-.025-.3-.032-.3-.04-.3-.043-.306-.048-.3-.056-.3-.061-.306-.068-.307-.072-.31-.081-.308-.084-.3-.088-.156-.048-.156-.048-.16-.052-.161-.052-.163-.056-.163-.057-.167-.059-.169-.063-.172-.065-.172-.066-.175-.068-.176-.066-.176-.075-.176-.073-.184-.075-.185-.077-.184-.082-.186-.081-.192-.084-.19-.086-.193-.09-.192-.091-.2-.09-.2-.1-.2-.1-.2-.1-.041-.02.572,6.459.023.005.174.047.172.043.177.041.17.047.174.039.172.043.169.038.17.039.167.04.168.039.163.036.163.038.167.034.163.034.159.034.163.032.159.033.159.03.16.032.154.031.156.029.153.03.154.027.152.027.155.025.148.025.151.027.147.021.147.022.3.045.3.038.288.042.283.034.283.032.281.027.278.027.276.027.269.02.267.018.264.014.264.014.258.009.257.007.255,0,.251,0,.366,0,.364-.009.353-.011.353-.021.343-.022.342-.029.337-.036.331-.038.326-.045.321-.054.316-.052.312-.061.307-.066.3-.07.3-.074.292-.082.283-.085.28-.093.283-.095.269-.1.271-.106.26-.111.26-.116.253-.12.249-.127.246-.131.24-.136.231-.144.233-.147.227-.153.221-.154.219-.161.208-.165.2-.169.2-.17.188-.178.185-.177.174-.178.168-.183.161-.183.156-.192.147-.19.142-.194.132-.192.129-.2.12-.2.113-.208.108-.208.1-.21.1-.215.086-.217.084-.224.075-.222.067-.228.064-.231.056-.233.048-.238.043-.242.034-.249.034-.246.02-.255.018-.256.012-.26v-.471Z" transform="translate(-461.503 -347.295)" fill="#2c4b80"/>
        <rect id="Retângulo_276" data-name="Retângulo 276" width="7.287" height="29.717" transform="translate(131.573 1.058)" fill="#2c4b80"/>
        <path id="Caminho_881" data-name="Caminho 881" d="M608.755,347.486l-7.2,30.438h6.3l3.567-15.428,11.39,16.658L634.2,362.5l3.568,15.428h6.3l-7.2-30.437-14.056,20.654Z" transform="translate(-515.296 -347.149)" fill="#2c4b80"/>
        <path id="Caminho_882" data-name="Caminho 882" d="M593.475,378.009h7.538l-2.928-5.046-6.791-11.7-8.075-13.914-17.8,30.663h7.54l10.262-17.676,3.057,5.268,6.984,12.036Z" transform="translate(-542.853 -347.256)" fill="#2c4b80"/>
        <path id="Caminho_883" data-name="Caminho 883" d="M584.435,365.5l.013.4.02.395.025.387.036.382.04.375.052.371.054.36.067.355.072.353.082.343.086.337.1.332.1.324.108.319.118.312.012.031.111.276.131.3.143.3.143.289.154.285.158.274.168.273.176.267.183.258.186.256.2.251.206.24.212.238.221.237.229.228.233.22.242.217.249.21.255.2.262.194.266.19.274.183.278.174.287.172.292.161.3.154.3.151.316.143.317.131.321.133.333.12.332.113.346.111.348.1.355.095.366.088.369.077.376.075.384.067.387.061.394.054.405.045.412.04.416.031.427.025.425.02.436.011.445,0,.438,0,.43-.011.427-.02.422-.025.41-.031.405-.04.4-.047.391-.054.387-.061.378-.066.371-.074.369-.082.361-.086.353-.095.348-.1.339-.108.335-.115.33-.124.323-.129.314-.138.308-.142.3-.149.3-.158.294-.163.28-.172.281-.176.271-.185.265-.19.262-.2.255-.2.25-.21.242-.221.239-.224.228-.23.221-.237.217-.238.2-.247.2-.253.192-.256.185-.26.174-.269.169-.271.165-.28.154-.287.143-.291.14-.292.134-.3.12-.307.118-.316.108-.319.106-.325.093-.332.088-.339.075-.343.075-.349.064-.355.058-.362.05-.369.039-.375.036-.378.029-.391.016-.393.016-.4,0-.411V347.9h-6.348v17.4l-.007.237-.007.233-.014.231-.016.226-.023.226-.021.221-.031.217-.034.217-.038.21-.041.21-.043.2-.05.2-.05.2-.061.2-.059.2-.066.188-.07.188-.07.183-.083.179-.08.178-.088.174-.086.169-.1.168-.1.165-.1.159-.109.156-.111.154-.115.147-.118.145-.125.14-.129.14-.135.136-.136.129-.138.126-.143.122-.147.115-.154.115-.154.108-.158.1-.161.1-.169.1-.165.089-.17.088-.177.082-.176.077-.183.072-.18.068-.192.064-.192.061-.192.056-.2.05-.2.048-.2.045-.206.036-.208.036-.208.031-.217.025-.217.023-.215.016-.222.014-.226.009-.229.007-.226,0-.24,0-.237-.007-.23-.009-.229-.014-.229-.02-.223-.025-.218-.029-.216-.032-.215-.036-.212-.043-.208-.047-.2-.047-.2-.061-.2-.056-.2-.065-.192-.07-.186-.074-.183-.079-.179-.084-.178-.088-.174-.093-.169-.1-.165-.1-.165-.109-.158-.111-.154-.118-.151-.118-.143-.129L594,371.4l-.135-.134-.136-.142-.127-.144-.124-.145-.122-.152-.117-.156-.116-.161-.108-.163-.1-.172-.1-.174-.1-.174-.091-.181-.086-.188-.082-.188-.079-.194-.075-.2-.072-.2-.065-.2-.066-.21-.055-.21-.054-.215-.054-.221-.047-.223-.047-.224-.036-.231-.036-.233-.03-.237-.027-.24-.025-.246-.023-.249,0-.073-.01-.178-.013-.257-.007-.256-.007-.265,0-.262V347.9h-7.183v17.2Z" transform="translate(-528.355 -346.837)" fill="#2c4b80"/>
      </g>
      <g id="Grupo_1161" data-name="Grupo 1161" transform="translate(56.076 69.713)">
        <path id="Caminho_884" data-name="Caminho 884" d="M637.548,369.539c-5.08-1.174-9.9-2.344-16.765-2.344a89.6,89.6,0,0,0-17.606,2.008L592.05,380.373c20.752-4.685,29.057-2.58,38.181-.474,9.645,2.224,20.2,4.449,47.345-1.345l11.162-11.211C658.728,374.189,647.636,371.866,637.548,369.539Z" transform="translate(-578.621 -367.195)" fill="url(#linear-gradient-4)"/>
        <path id="Caminho_885" data-name="Caminho 885" d="M635.376,376.441c-5.081-1.17-9.907-2.341-16.765-2.341-5.751,0-12.933.823-22.891,3.16L584.431,388.6c24.827-6.356,33.756-4.079,43.647-1.8,9.006,2.075,18.811,4.147,42.152-.3l11.049-11.1C655.206,380.81,644.848,378.626,635.376,376.441Z" transform="translate(-584.431 -361.93)" fill="url(#linear-gradient-5)"/>
      </g>
    </g>
  </g>
</svg>
