<svg xmlns="http://www.w3.org/2000/svg" xmlns:xlink="http://www.w3.org/1999/xlink" width="233.199" height="107.35" viewBox="0 0 233.199 107.35">
  <defs>
    <clipPath id="clip-path">
      <path id="Caminho_1083" data-name="Caminho 1083" d="M863.869,329.6c-30.021,0-80.785,23.927-113.472,53.509-32.753,29.637-34.982,53.751-4.984,53.841,14.568.042,34.057-5.588,54.007-14.78q-.9-.114-1.842-.2c-14.457,6.226-28.131,10.111-38.651,10.477-25.5.885-22.518-19.068,6.313-44.73s72.612-47.194,98.117-48.079c18.656-.649,22.216,9.857,11.491,25.593h1.106c15.309-20.7,11.615-35.558-11.917-35.632h-.17" transform="translate(-724.296 -329.597)" fill="none"/>
    </clipPath>
    <linearGradient id="linear-gradient" x1="-27.617" y1="-5.45" x2="-27.606" y2="-5.45" gradientUnits="objectBoundingBox">
      <stop offset="0" stop-color="#d9d7d9"/>
      <stop offset="0.5" stop-color="#fff"/>
      <stop offset="1" stop-color="#d9d7d9"/>
    </linearGradient>
    <clipPath id="clip-path-2">
      <path id="Caminho_1084" data-name="Caminho 1084" d="M757.947,384.327l-11.354,11.331c24.975-6.352,33.951-4.072,43.9-1.8,9.061,2.071,18.923,4.143,42.4-.3l11.118-11.092c-26.228,5.4-36.648,3.222-46.176,1.039-5.109-1.172-9.965-2.34-16.864-2.34-5.784,0-13.009.82-23.025,3.156m13.344-13.314L760.1,382.178c20.874-4.682,29.229-2.58,38.407-.474,9.7,2.222,20.326,4.445,47.625-1.343l11.23-11.205c-30.189,6.842-41.346,4.516-51.494,2.19-5.111-1.168-9.963-2.336-16.866-2.336a90.686,90.686,0,0,0-17.709,2" transform="translate(-746.593 -369.009)" fill="none"/>
    </clipPath>
    <linearGradient id="linear-gradient-2" x1="-71.656" y1="-5.845" x2="-71.628" y2="-5.845" gradientUnits="objectBoundingBox">
      <stop offset="0" stop-color="#e75f24"/>
      <stop offset="0.25" stop-color="#e75f24"/>
      <stop offset="0.75" stop-color="#efa21e"/>
      <stop offset="1" stop-color="#efa21e"/>
    </linearGradient>
  </defs>
  <g id="logo-bauminas-log" transform="translate(-714.865 -329.597)">
    <g id="Grupo_1550" data-name="Grupo 1550" transform="translate(731.532 329.597)">
      <g id="Grupo_1549" data-name="Grupo 1549" clip-path="url(#clip-path)">
        <rect id="Ret창ngulo_444" data-name="Ret창ngulo 444" width="175.85" height="107.393" transform="translate(-8.881 0)" fill="url(#linear-gradient)"/>
      </g>
    </g>
    <g id="Grupo_1552" data-name="Grupo 1552" transform="translate(770.94 399.253)">
      <g id="Grupo_1551" data-name="Grupo 1551" clip-path="url(#clip-path-2)">
        <rect id="Ret창ngulo_445" data-name="Ret창ngulo 445" width="67.325" height="113.723" transform="matrix(0.364, -0.931, 0.931, 0.364, -9.831, 25.153)" fill="url(#linear-gradient-2)"/>
      </g>
    </g>
    <g id="Grupo_1553" data-name="Grupo 1553" transform="translate(714.865 364.218)">
      <path id="Caminho_1085" data-name="Caminho 1085" d="M721.991,375.8h3.9l.3,0,.3-.016.293-.021.286-.028.274-.042.274-.051.26-.056.26-.069.253-.078.241-.087.237-.1.233-.111.219-.113.215-.129.21-.138.2-.15.194-.157.182-.168.161-.177.159-.186.15-.191.133-.2.12-.208.108-.219.1-.224.079-.233.073-.24.057-.244.044-.251.03-.251.019-.262.007-.262-.007-.262-.019-.255-.03-.247-.044-.242-.057-.24-.069-.233-.078-.223-.1-.223-.108-.21-.12-.205-.131-.2-.143-.182-.157-.178-.163-.17-.179-.157-.187-.15-.194-.14-.207-.129-.214-.118-.221-.115-.23-.1-.235-.088-.244-.083-.251-.072-.262-.064-.265-.055-.274-.046-.281-.035-.29-.025-.3-.021-.3-.016-.307,0h-3.9Zm0-13.552h3.249l.3,0,.288-.011.283-.021.279-.025.27-.037.262-.042.254-.049.251-.062.247-.064.232-.079.23-.083.226-.092.216-.1.205-.115.205-.118.191-.129.189-.143.173-.15.168-.157.156-.166.143-.178.133-.187.118-.189.111-.2.092-.207.081-.219.069-.219.06-.228.041-.233.03-.233.018-.244.009-.247-.005-.244-.021-.237-.023-.232-.042-.23-.057-.226-.065-.216-.08-.21-.094-.2-.106-.2-.117-.184-.131-.182-.14-.166-.154-.157-.162-.143-.172-.14-.184-.125-.189-.115-.2-.1-.208-.1-.217-.09-.224-.076-.237-.074-.244-.065-.256-.057-.263-.051-.274-.042-.283-.032-.292-.032-.3-.023-.311-.014-.322-.011-.329,0h-3.065Zm-7.126,17.691v-29.7h11.007l.387.007.378.007.373.014.368.014.359.021.35.028.346.026.341.035.332.032.327.039.322.044.313.049.309.046.3.058.293.057.286.062.286.067.272.065.272.071.26.076.255.083.253.085.24.083.239.09.228.092.221.094.219.1.212.1.205.1.2.111.191.111.185.115.179.122.168.118.168.125.159.125.154.133.143.133.14.136.133.136.129.143.122.143.115.147.106.152.106.154.1.157.092.157.09.166.081.164.072.168.074.177.064.179.06.178.053.184.048.189.042.194.039.193.032.2.026.209.02.2.014.216.007.221.005.219-.005.265-.016.262-.025.251-.041.247-.042.24-.057.237-.067.226-.078.224-.085.212-.1.216-.108.207-.115.205-.129.2-.136.194-.147.191-.159.186-.173.179-.18.177-.193.171-.2.171-.216.163-.231.161-.24.154a18.859,18.859,0,0,1-5.523,2.093,19.641,19.641,0,0,1,5.5,1.409l.154.073.15.079.145.078.141.083.14.085.14.087.134.09.134.09.129.1.125.094.126.1.118.1.12.1.117.1.115.111.111.111.109.115.1.115.106.115.1.113.1.118.085.118.09.118.087.125.081.122.078.125.074.125.071.125.069.133.06.125.064.136.058.133.051.136.053.136.044.136.05.14.041.145.034.143.039.147.03.147.028.15.023.15.023.156.019.157.016.154.011.161.011.161,0,.166,0,.161,0,.258-.012.255-.018.247-.026.244-.03.237-.037.232-.046.23-.051.226-.06.219-.065.217-.071.209-.078.209-.088.2-.088.2-.1.193-.108.194-.111.182-.118.187-.129.178-.133.175-.14.173-.15.171-.15.164-.166.159-.168.161-.178.157-.184.147-.2.15-.2.149-.208.14-.216.14-.223.133-.232.133-.242.129-.242.122-.255.122-.265.115-.269.11-.278.108-.285.108-.292.1-.3.1-.307.092-.316.09-.325.083-.334.081-.336.072-.348.074-.355.065-.366.06-.367.062-.382.053-.384.055-.394.042-.4.042-.415.037-.416.032-.424.028-.435.025-.437.023-.449.014-.452.011-.465,0-.47.007Zm63.224-29.7v16.4l0,.262.005.265.009.255.014.258.016.251.021.247.025.247.028.24.028.237.037.233.037.228.044.226.048.223.053.219.053.214.058.212.062.212.069.2.072.2.071.2.081.191.083.189.087.187.092.179.092.177.106.175.1.171.108.161.115.163.117.157.12.15.124.147.127.143.136.141.134.134.145.131.143.129.15.122.154.113.159.115.163.108.166.1.168.1.177.092.173.087.182.083.184.078.184.076.194.071.193.062.2.06.2.058.2.046.207.051.21.039.216.039.215.028.219.03.223.025.226.021.231.014.23.011.235.007h.47l.226-.007.224-.011.223-.014.217-.018.217-.021.214-.026.209-.032.207-.032.209-.039.2-.048.2-.046.2-.049.193-.058.191-.057.191-.065.182-.067.182-.072.175-.078.177-.083.171-.087.166-.088.168-.1.159-.1.159-.1.152-.108.155-.11.147-.118.145-.118.14-.129.136-.129.133-.133.131-.141.124-.143.118-.143.115-.147.113-.154.11-.157.1-.163.1-.161.1-.168.087-.168.088-.177.08-.175.079-.18.074-.186.069-.182.067-.191.058-.193.058-.2.051-.2.051-.2.044-.209.039-.207.039-.208.035-.216L793.9,369l.023-.223.023-.226.018-.226.014-.228.007-.233.007-.237,0-.237V350.245h6.34v17.142l0,.408-.014.4-.016.391-.028.391-.034.38-.044.373-.048.369-.058.362-.062.359-.076.348-.078.343-.087.337-.1.329-.1.327-.11.318-.117.316-.126.3-.134.3-.136.3-.145.29-.157.283-.161.281-.168.272-.175.265-.186.262-.189.258-.2.251-.2.247-.217.24-.217.235-.228.23-.24.223-.242.219-.249.21-.253.205-.263.2-.261.194-.276.182-.279.18-.281.171-.288.161-.3.157-.3.148-.311.143-.313.14-.322.126-.329.122-.334.118-.341.108-.348.1-.353.094-.357.09-.371.081-.373.073-.377.064-.387.062-.391.053-.4.051-.4.035-.415.032-.417.025-.424.02-.435.01-.437,0-.444,0-.435-.01-.428-.02-.424-.025-.417-.032-.412-.035-.4-.048-.394-.053-.389-.062-.384-.064-.376-.076-.37-.078-.366-.09-.355-.1-.346-.1-.345-.108-.334-.115-.33-.122-.323-.129-.316-.133-.316-.143-.3-.152-.3-.154-.29-.161-.29-.168-.276-.177-.276-.186-.265-.187-.262-.2-.255-.205-.247-.2-.24-.219-.237-.223-.232-.228-.216-.233-.216-.237-.205-.244-.2-.251-.186-.254-.184-.258-.175-.269-.172-.272-.157-.276-.154-.283-.143-.288-.143-.293-.131-.3-.12-.306-.117-.311-.11-.323-.1-.322-.1-.334-.087-.336-.081-.341-.073-.355-.065-.352-.057-.364-.049-.369-.041-.376-.033-.38-.027-.387-.023-.394-.01-.4,0-.417V350.245Zm68.273,0h7.282v29.7h-7.282Zm10.594,29.7.007-30.6,23.757,18.9v-18h6.6v30.69L863.55,362.118v17.824Zm74.109-4.7.309.08.307.074.307.065.3.06.3.058.307.049.3.041.306.039.3.032.3.025.3.021.3.016.3.007.3,0,.3,0,.3-.012.288-.014.279-.028.279-.032.27-.043.26-.044.26-.053.251-.069.242-.067.239-.08.235-.09.226-.092.219-.108.21-.108.2-.122.2-.122.188-.133.177-.143.168-.147.157-.154.145-.163.134-.168.118-.179.109-.184.092-.189.08-.2.069-.2.05-.205.034-.21.023-.212.007-.219-.007-.175-.023-.18-.034-.179-.046-.171-.062-.173-.069-.168-.085-.164-.09-.164-.1-.159-.11-.157-.12-.154-.127-.154-.141-.152-.149-.154-.155-.147-.165-.147-.175-.15-.18-.147-.191-.148-.2-.147-.214-.147-.214-.147-.228-.15-.235-.15-.247-.147-.253-.152-.265-.147-.274-.15-.281-.15-.288-.15-.3-.15-.309-.155-.194-.092-.179-.087-.327-.161-.145-.072-.135-.064-.122-.062-.12-.064-2.492-1.184-.219-.106-.214-.108-.21-.108-.207-.108-.2-.108-.2-.111-.194-.11-.193-.115-.187-.108-.186-.115-.179-.115-.177-.111-.175-.115-.168-.115-.17-.115-.161-.117-.156-.118-.154-.118-.15-.118-.147-.118-.145-.118-.141-.122-.134-.118-.129-.125-.127-.122-.127-.122-.118-.122-.118-.122-.113-.125-.11-.125-.106-.125-.1-.126-.1-.125-.1-.125-.092-.129-.088-.129-.085-.129-.085-.133-.078-.129-.074-.129-.076-.136-.069-.133-.065-.136-.065-.133-.057-.136-.06-.14-.051-.136-.049-.14-.048-.14-.048-.14-.039-.143-.037-.145-.039-.147-.032-.147-.027-.147-.026-.147-.027-.15-.018-.152-.018-.15-.014-.154-.01-.154-.007-.154,0-.157,0-.159,0-.214.009-.209.012-.209.023-.2.027-.2.03-.2.041-.2.044-.193.046-.187.06-.189.058-.184.069-.182.073-.184.078-.175.085-.175.087-.173.1-.171.1-.168.111-.166.111-.164.122-.164.129-.157.129-.161.14-.159.147-.154.154-.154.157-.15.168-.147.168-.148.182-.147.186-.147.193-.14.2-.14.2-.133.2-.129.209-.125.21-.122.217-.115.219-.115.223-.111.228-.1.233-.1.232-.094.24-.094.24-.085.246-.079.253-.08.254-.071.256-.072.263-.064.265-.058.272-.057.272-.055.279-.046.281-.039.286-.039.292-.037.3-.028.3-.025.3-.021.308-.016.309-.011.313-.007h.557l.239,0,.244.007.242.012.248.014.249.018.255.018.254.018.262.025.258.034.262.028.27.035.269.035.272.044.277.039.278.049.141.023.141.025.14.025.143.025.143.028.145.025.148.034.147.032.147.028.152.028.15.034.152.035.15.035.152.032.157.037.156.039.159.035.156.037.157.042.159.039.161.041.163.039.161.042.164.044.166.046.166.042.168.048.168.046.14.039v5.52l-.071-.035-.163-.083-.166-.078-.165-.076-.166-.078-.161-.076-.166-.076-.162-.071-.163-.072-.161-.074-.161-.069-.161-.067-.163-.069-.157-.064-.157-.062-.161-.064-.163-.062-.154-.064-.157-.062-.156-.057-.161-.055-.155-.057-.156-.058-.154-.049-.154-.049-.159-.055-.306-.1-.3-.092-.3-.083-.285-.079-.288-.071-.281-.069-.276-.057-.27-.053-.267-.051-.258-.039-.258-.037-.251-.028-.246-.021-.242-.018-.239-.011h-.479l-.244.011-.235.011-.23.021-.23.028-.217.034-.216.039-.21.042-.207.051-.2.06-.2.065-.189.067-.184.083-.18.085-.175.09-.168.1-.163.111-.15.115-.147.122-.134.129-.129.133-.118.147-.108.15-.1.154-.086.163-.076.168-.064.175-.053.177-.039.178-.028.187-.016.186-.009.2.014.265.042.274.065.269.1.262.118.251.14.244.163.233.184.217.108.115.1.1.112.1.113.1.118.1.127.1.124.094.133.092.14.09.141.09.143.085.15.087.157.083.163.078.163.079.161.076,4.312,2.027.331.159.325.154.316.154.309.154.3.15.3.156.291.15.279.15.272.147.265.15.26.143.255.152.244.143.239.143.232.143.221.143.217.143.21.14.2.14.193.136.189.136.182.136.172.138.166.131.161.134.149.133.145.125.14.129.127.125.122.126.115.12.108.124.1.12.1.126.1.125.094.122.092.129.085.133.087.129.079.129.074.133.072.133.071.136.069.138.064.14.057.14.06.136.053.147.053.143.046.143.046.147.039.147.041.152.03.15.032.154.032.154.025.154.018.163.02.157.014.164.016.161.007.166.005.168v.164l0,.265-.011.262-.018.254-.025.255-.028.247-.035.248-.044.244-.049.237-.053.233-.065.233-.067.224-.074.223-.085.226-.085.216-.094.217-.1.209-.106.207-.115.205-.118.2-.127.2-.136.194-.141.193-.145.191-.156.189-.163.184-.169.182-.172.178-.182.18-.191.175-.2.168-.2.17-.21.164-.219.161-.219.159-.23.15-.231.147-.233.14-.237.14-.244.129-.249.129-.256.118-.256.118-.262.111-.27.108-.267.1-.285.094-.281.094-.285.085-.29.083-.3.076-.3.067-.306.065-.313.06-.315.055-.325.049-.323.046-.331.041-.336.035-.343.028-.346.025-.346.016-.359.014-.362.007-.364,0-.253,0-.253,0-.255-.007-.26-.007-.263-.016-.265-.014-.265-.018-.27-.021-.274-.025-.281-.028-.281-.027-.283-.032-.283-.035-.29-.039-.3-.041-.293-.042-.147-.021-.148-.023-.15-.025-.15-.028-.154-.025-.152-.025-.152-.028-.152-.03-.157-.032-.155-.028-.157-.028-.159-.034-.164-.032-.161-.032-.161-.035-.163-.034-.163-.035-.166-.035-.163-.041-.168-.035-.168-.039-.168-.039-.17-.041-.173-.039-.173-.042-.171-.048-.175-.039-.171-.042-.177-.048-.023,0-.569-6.458.039.018.2.1.2.094.2.1.2.09.194.094.191.088.193.083.191.087.187.078.182.083.186.076.182.078.18.072.173.074.177.069.175.067.172.069.171.062.168.06.166.06.163.058.168.057.161.051.157.053.156.049.156.044.306.09Zm-108.748,5.928-11.384-16.643-3.563,15.419h-6.292l7.192-30.422,14.047,20.645,14.049-20.645,7.193,30.422h-6.3L833.7,364.523Zm-84.9-1.246,17.789-30.648,17.783,30.648h-7.533l-10.251-17.667-10.254,17.667Zm151.52,0,17.79-30.648,17.785,30.648h-7.532l-10.253-17.667-10.254,17.667Z" transform="translate(-714.865 -349.186)" fill="#2b4a81" fill-rule="evenodd"/>
    </g>
    <path id="Caminho_1086" data-name="Caminho 1086" d="M818.567,381.609v1.5h-7.3V371.631h1.582v9.979Z" transform="translate(73.979 32.255)" fill="#e96a23"/>
    <path id="Caminho_1087" data-name="Caminho 1087" d="M823.678,377.62c0,3.65-2.2,4.42-4.042,4.42s-4.042-.771-4.042-4.42,2.2-4.422,4.042-4.422,4.042.776,4.042,4.422m-1.584,0c0-2.667-1.168-3.028-2.458-3.028s-2.462.361-2.462,3.028,1.172,3.027,2.462,3.027,2.458-.361,2.458-3.027" transform="translate(77.296 33.458)" fill="#e96a23"/>
    <path id="Caminho_1088" data-name="Caminho 1088" d="M827.768,375.9v6.384c0,1.377-.654,3.012-3.77,3.012a9.067,9.067,0,0,1-2.545-.362v-1.492a8.283,8.283,0,0,0,2.409.376c2.338,0,2.338-.967,2.338-1.534v-.755a6.632,6.632,0,0,1-1.735.24c-2.46,0-3.821-1.5-3.821-4.2,0-2.5,1.068-4.388,3.683-4.388,2.047,0,3.441.945,3.441,2.716m-1.567-.1c0-.307,0-1.2-1.874-1.2-.981,0-2.1.329-2.1,2.978,0,2.443,1.068,2.771,2.239,2.771a4.64,4.64,0,0,0,1.735-.329Z" transform="translate(81.171 33.443)" fill="#e96a23"/>
  </g>
</svg>
