<svg xmlns="http://www.w3.org/2000/svg" xmlns:xlink="http://www.w3.org/1999/xlink" width="239.675" height="107.264" viewBox="0 0 239.675 107.264">
  <defs>
    <clipPath id="clip-path">
      <path id="Caminho_1071" data-name="Caminho 1071" d="M859.886,227.3c-30,0-80.72,23.908-113.382,53.466-32.729,29.618-34.956,53.7-4.981,53.8,14.557.046,34.029-5.583,53.962-14.769-.594-.071-1.21-.139-1.837-.2-14.446,6.224-28.109,10.1-38.619,10.467-25.486.884-22.5-19.052,6.307-44.694s72.552-47.156,98.039-48.042c18.644-.648,22.2,9.85,11.482,25.574h1.11c15.3-20.688,11.6-35.529-11.911-35.6h-.169" transform="translate(-720.422 -227.299)" fill="none"/>
    </clipPath>
    <linearGradient id="linear-gradient" x1="-27.573" y1="-3.809" x2="-27.562" y2="-3.809" gradientUnits="objectBoundingBox">
      <stop offset="0" stop-color="#d9d7d9"/>
      <stop offset="0.5" stop-color="#fff"/>
      <stop offset="1" stop-color="#d9d7d9"/>
    </linearGradient>
    <clipPath id="clip-path-2">
      <path id="Caminho_1072" data-name="Caminho 1072" d="M754.062,282.052l-11.341,11.32c24.949-6.345,33.924-4.073,43.865-1.8,9.054,2.07,18.909,4.143,42.367-.3l11.108-11.085c-26.2,5.4-36.618,3.224-46.136,1.039-5.107-1.168-9.959-2.338-16.853-2.338-5.784,0-13,.822-23.01,3.159m13.34-13.3L756.215,279.9c20.857-4.681,29.205-2.578,38.376-.476,9.694,2.22,20.31,4.445,47.589-1.343L853.4,266.889c-30.163,6.836-41.312,4.512-51.451,2.192-5.107-1.168-9.955-2.338-16.853-2.338a90.4,90.4,0,0,0-17.691,2" transform="translate(-742.721 -266.743)" fill="none"/>
    </clipPath>
    <linearGradient id="linear-gradient-2" x1="-70.14" y1="-4.235" x2="-70.113" y2="-4.235" gradientUnits="objectBoundingBox">
      <stop offset="0" stop-color="#80391b"/>
      <stop offset="0.25" stop-color="#80391b"/>
      <stop offset="0.443" stop-color="#90502d"/>
      <stop offset="0.75" stop-color="#b07e51"/>
      <stop offset="1" stop-color="#b07e51"/>
    </linearGradient>
  </defs>
  <g id="logo-bauminas-mineracao" transform="translate(-710.985 -227.299)">
    <g id="Grupo_1544" data-name="Grupo 1544" transform="translate(727.637 227.299)">
      <g id="Grupo_1543" data-name="Grupo 1543" clip-path="url(#clip-path)">
        <rect id="Ret창ngulo_442" data-name="Ret창ngulo 442" width="175.713" height="107.311" transform="translate(-8.874 -0.001)" fill="url(#linear-gradient)"/>
      </g>
    </g>
    <g id="Grupo_1546" data-name="Grupo 1546" transform="translate(766.985 296.9)">
      <g id="Grupo_1545" data-name="Grupo 1545" clip-path="url(#clip-path-2)">
        <rect id="Ret창ngulo_443" data-name="Ret창ngulo 443" width="68.726" height="113.41" transform="translate(-10.158 24.82) rotate(-67.75)" fill="url(#linear-gradient-2)"/>
      </g>
    </g>
    <g id="Grupo_1547" data-name="Grupo 1547" transform="translate(710.985 261.893)">
      <path id="Caminho_1073" data-name="Caminho 1073" d="M718.105,273.5H722l.3-.007.3-.014.293-.018.286-.032.273-.041.272-.053.261-.058.261-.071.251-.076.24-.086.236-.1.233-.108.222-.118.212-.125.212-.136.2-.152.191-.161.178-.168.166-.176.157-.182.15-.194.132-.2.122-.206.108-.219.1-.226.078-.229.072-.24.058-.247.042-.251.032-.251.014-.258.011-.265-.011-.258-.014-.259-.032-.247-.042-.244-.058-.236-.069-.235-.078-.226-.1-.219-.107-.212-.122-.2-.129-.2-.146-.187-.154-.178-.166-.169-.175-.154-.19-.15-.189-.143-.208-.129-.215-.118-.222-.111-.224-.1-.236-.09-.249-.081-.245-.072-.263-.062-.265-.056-.272-.042-.282-.041-.291-.025-.3-.021-.305-.011-.3,0h-3.9Zm0-13.543h3.243l.295-.005.286-.011.288-.018.279-.028.268-.035.261-.044.254-.049.251-.058.247-.067.236-.079.226-.083.222-.092.219-.1.208-.115.2-.122.194-.129.189-.143.173-.148.168-.161.15-.164.148-.18.132-.182.118-.194.111-.2.092-.208.083-.215.069-.222.057-.229.042-.231.034-.236.014-.242.01-.242-.007-.249-.018-.236-.03-.231-.039-.229-.056-.226-.065-.215-.08-.208-.092-.2-.108-.2-.115-.182-.132-.18-.139-.164-.155-.162-.161-.143-.171-.136-.183-.129-.192-.111-.2-.108-.208-.1-.215-.09-.224-.076-.242-.071-.238-.069-.26-.058-.261-.046-.275-.042-.282-.037-.291-.028-.3-.025-.309-.014-.321-.011h-3.392Zm-7.12,17.676V247.957h10.607l.392.007.386,0,.376.007.372.011.369.021.358.021.351.025.344.03.342.032.33.032.33.042.319.044.314.046.309.051.3.049.3.06.282.062.282.069.277.064.268.076.261.074.258.079.247.083.244.081.236.094.233.09.222.1.214.1.212.1.2.108.2.108.189.115.187.115.178.118.17.122.167.122.157.125.155.132.143.132.139.136.132.139.129.141.122.143.115.146.107.15.1.154.1.159.092.157.09.166.079.168.078.168.069.173.065.175.06.184.053.182.051.191.039.192.039.2.034.2.025.206.021.208.014.215.007.219,0,.217,0,.27-.018.258-.025.254-.039.247-.044.236-.053.236-.069.226-.078.224-.087.215-.1.212-.108.208-.118.2-.125.2-.136.194-.146.189-.157.187-.173.178-.182.176-.194.171-.2.168-.219.166-.228.161-.24.159a18.884,18.884,0,0,1-5.516,2.087,19.588,19.588,0,0,1,5.495,1.406l.154.076.15.078.143.079.143.079.139.086.141.085.132.09.136.094.129.094.125.1.125.1.118.1.122.1.115.1.115.108.111.109.108.115.108.115.1.111.1.118.1.118.09.118.09.118.085.125.083.122.079.125.07.125.073.125.064.132.065.129.06.134.062.132.049.136.055.136.046.136.042.143.044.139.035.143.039.148.03.15.028.146.021.15.025.155.021.157.014.153.011.162.012.161v.164l0,.162,0,.261-.012.251-.018.247-.025.247-.032.236-.035.233-.048.226-.049.228-.062.219-.064.212-.072.212-.078.212-.087.2-.093.2-.1.2-.106.191-.111.187-.118.182-.131.18-.132.175-.139.171-.15.173-.154.164-.162.157-.168.162-.178.157-.183.146-.194.152-.2.146-.208.139-.212.139-.226.136-.228.129-.245.129-.242.125-.256.118-.265.118-.265.111-.279.108-.288.1-.289.1-.3.1-.307.09-.319.09-.321.083-.333.081-.337.076-.348.072-.358.064-.362.062-.369.063-.379.051-.386.049-.39.046-.406.044-.408.039-.415.028-.424.03-.436.025-.438.021-.448.014-.455.011-.46,0-.473.007Zm63.173-29.676v16.391l0,.261.007.265.007.258.014.254.01.251.025.251.027.244.025.24.032.236.035.236.041.229.042.222.046.222.055.222.053.21.058.212.064.208.065.2.071.2.076.2.079.189.085.191.083.187.094.182.094.175.1.169.1.175.107.166.115.161.118.154.118.155.125.143.125.143.136.139.132.136.148.132.143.129.15.118.154.118.157.111.166.108.161.1.173.1.175.088.171.093.184.083.182.078.187.076.194.069.192.064.2.058.2.06.2.048.208.046.212.042.214.037.215.032.222.028.222.021.226.021.229.016.229.011.236.007h.464l.229-.007.226-.011.222-.016.219-.018.214-.021.215-.025.208-.032.208-.034.206-.039.2-.042.2-.048.2-.049.191-.058.192-.06.187-.065.178-.067.187-.072.175-.078.18-.083.164-.086.169-.088.168-.094.161-.1.159-.1.153-.1.154-.115.146-.115.145-.125.139-.125.132-.125.136-.136.129-.139.125-.143.118-.143.118-.148.111-.153.1-.154.108-.166.092-.161.1-.168.083-.169.093-.175.078-.176.083-.178.073-.187.067-.182.065-.191.06-.192.058-.2.053-.2.049-.2.048-.2.035-.208.041-.21.032-.219.028-.219.025-.219.021-.226.023-.221.011-.233.007-.236.007-.233,0-.236V247.957h6.335V265.09l0,.411-.014.4-.018.392-.028.39-.037.376-.039.372-.053.372-.055.358-.065.358-.074.348-.076.344-.086.337-.1.332-.1.323-.108.319-.118.314-.118.305-.139.3-.136.3-.143.289-.155.286-.161.277-.168.272-.18.265-.182.265-.19.254-.2.251-.2.251-.219.236-.219.236-.226.229-.24.226-.244.219-.25.208-.251.2-.261.2-.265.189-.272.183-.281.18-.279.171-.293.161-.3.159-.3.146-.309.143-.312.139-.321.125-.33.122-.337.118-.335.108-.348.1-.351.1-.362.085-.369.083-.372.072-.378.067-.386.062-.39.049-.4.051-.4.035-.413.035-.418.021-.427.019-.425.012h-.886l-.436-.012-.424-.019-.425-.021-.417-.035-.411-.035-.4-.048-.4-.053-.39-.062-.383-.064-.376-.076-.369-.079-.365-.088-.355-.094-.348-.1-.344-.108-.333-.115-.328-.118-.323-.132-.318-.132-.316-.143-.3-.146-.295-.159-.293-.161-.288-.168-.279-.176-.272-.185-.267-.187-.261-.2-.254-.2-.247-.208-.243-.219-.233-.222-.229-.228-.221-.233-.212-.236-.2-.24-.2-.251-.185-.258-.187-.259-.171-.268-.168-.268-.159-.275-.154-.284-.143-.289-.143-.3-.132-.3-.118-.3-.118-.312-.108-.319-.1-.325-.093-.333-.087-.333-.078-.344-.072-.351-.067-.356-.058-.358-.046-.372-.044-.374-.032-.379-.025-.386-.025-.4-.011-.4,0-.411V247.957Zm68.218,0h7.277v29.676h-7.277Zm10.584,29.676.011-30.573,23.735,18.888V247.957H883.3v30.668l-23.747-18.8v17.81Zm74.052-4.7.312.081.307.072.306.067.3.058.305.056.3.051.3.039.3.039.3.033.3.028.3.018.3.014.3.011h.3l.3,0,.3-.007.286-.021.281-.021.279-.037.268-.039.261-.046.258-.055.251-.067.249-.069.235-.078.236-.09.223-.094.222-.1.208-.111.2-.118.2-.125.191-.132.175-.139.169-.146.157-.159.143-.161.132-.168.118-.18.111-.178.093-.194.078-.2.069-.2.05-.2.037-.21.021-.212.007-.215-.007-.178-.021-.18-.037-.175-.046-.173-.06-.175-.069-.169-.083-.164-.094-.161-.1-.162-.111-.154-.118-.157-.129-.155-.139-.15-.152-.15-.154-.146-.164-.15-.173-.152-.182-.146-.194-.146-.2-.146-.21-.148-.215-.146-.229-.15-.233-.146-.247-.15-.251-.152-.265-.146-.277-.15-.279-.15-.289-.152-.306-.15-.3-.15-.2-.1-.178-.086-.326-.161-.146-.072-.132-.064-.122-.062-.122-.06L928,262.954l-.217-.108-.215-.1-.208-.109-.212-.1-.2-.111-.2-.111-.194-.108-.192-.115-.187-.111-.185-.111-.18-.118-.178-.111-.173-.115-.168-.115-.169-.116-.161-.115-.154-.118-.157-.115-.152-.124-.146-.113-.14-.122-.143-.118-.132-.122-.129-.122-.129-.122-.125-.127-.118-.12-.118-.122-.115-.125-.111-.127-.1-.125-.1-.124-.1-.127-.1-.125-.092-.129-.09-.125-.083-.132-.085-.129-.079-.129-.076-.136-.074-.132-.065-.132-.067-.132-.065-.136-.056-.138-.062-.139-.05-.132-.051-.143-.049-.139-.048-.139-.039-.145-.035-.146-.035-.139-.033-.146-.032-.146-.021-.148-.025-.15-.019-.15-.021-.154-.014-.155-.007-.15-.01-.154,0-.161v-.369l.01-.212.011-.2.025-.2.03-.2.028-.2.039-.2.044-.194.05-.191.056-.185.058-.183.067-.178.076-.184.076-.178.085-.176.09-.171.1-.168.1-.173.115-.164.108-.164.125-.162.125-.161.132-.161.14-.159.146-.154.15-.154.162-.152.164-.146.171-.15.18-.143.185-.143.194-.145.194-.139.2-.132.2-.129.208-.125.21-.125.215-.111.219-.115.226-.108.229-.1.229-.1.233-.093.24-.09.244-.086.238-.081.252-.079.258-.071.258-.069.258-.069.268-.056.272-.056.274-.055.279-.046.279-.041.291-.042.289-.028.293-.034.3-.025.305-.018.307-.014.309-.014.314-.007h.552l.24,0,.244.007.24.011.247.018.251.014.25.018.258.023.261.025.258.028.261.028.273.037.268.035.272.042.275.041.281.049.139.021.14.025.139.027.143.025.145.028.146.025.146.034.146.032.146.028.152.032.15.028.153.041.15.032.155.032.154.037.154.039.157.035.159.041.157.039.157.039.162.041.164.042.157.039.166.048.164.042.168.046.169.048.168.046.139.039v5.512l-.071-.041-.166-.074-.164-.079-.164-.078-.166-.079-.164-.076-.161-.074-.166-.072-.161-.071-.161-.072-.162-.072-.161-.067-.161-.065-.159-.064-.161-.065-.157-.064-.162-.062-.153-.06-.157-.062-.157-.06-.159-.055-.154-.056-.154-.055-.159-.053-.154-.049-.157-.055-.305-.1-.3-.094-.3-.081-.286-.079-.286-.067-.281-.069-.275-.056-.268-.058-.268-.046-.259-.044-.258-.035-.25-.028-.247-.021-.244-.019-.236-.011h-.48l-.24.011-.236.012-.233.025-.224.025-.222.032-.212.041-.212.042-.207.049-.2.062-.2.064-.189.072-.18.079-.182.085-.177.094-.164.1-.164.108-.152.115-.143.122-.139.129-.125.132-.122.143-.1.154-.1.155-.085.161-.076.168-.062.176-.053.175-.039.184-.03.182-.018.187-.007.2.014.27.041.268.067.268.094.261.122.251.14.243.166.233.178.219.111.115.1.1.115.1.111.1.118.1.125.1.125.093.132.094.139.088.139.09.143.086.155.086.157.085.157.079.161.078.166.076,4.307,2.024.33.157.326.154.318.155.309.154.3.15.295.154.289.152.281.146.272.154.268.146.258.148.251.146.247.143.24.146.229.143.222.141.219.143.206.139.2.139.194.136.185.139.184.132.171.136.166.138.161.129.15.132.143.125.139.132.125.125.122.122.118.125.108.118.1.122.1.125.093.125.1.125.088.125.083.132.09.129.078.129.076.132.076.138.063.136.072.132.063.139.058.139.06.139.051.143.053.145.048.146.042.143.039.15.041.146.035.152.032.154.028.153.025.154.019.162.018.161.014.161.018.162.007.164,0,.168v.434l-.01.258-.018.258-.025.251-.03.247-.035.247-.042.245-.051.235-.053.236-.065.229-.067.229-.076.222-.081.222-.087.215-.1.217-.1.208-.1.208-.115.208-.118.2-.129.2-.136.192-.139.194-.146.191-.157.189-.162.184-.168.185-.171.176-.187.178-.187.176-.2.171-.2.168-.208.166-.219.161-.221.154-.226.152-.233.146-.233.143-.236.136-.247.129-.25.129-.251.122-.258.115-.261.111-.27.108-.272.1-.279.1-.279.088-.288.086-.289.083-.3.074-.3.069-.309.067-.311.058-.316.056-.321.051-.326.042-.33.041-.337.035-.342.028-.344.025-.351.014-.355.014-.362.011H931.1l-.251,0-.254-.011-.263-.009-.261-.014-.265-.014-.268-.018-.268-.021L929,278.53l-.277-.026-.282-.028-.284-.032-.282-.035-.289-.041-.295-.039-.293-.039-.15-.026-.145-.025-.15-.021-.15-.028-.153-.025-.15-.026-.155-.028-.154-.025-.153-.032-.159-.034-.157-.028-.157-.032-.161-.032-.162-.033-.161-.035-.166-.032-.164-.035-.161-.037-.166-.039-.168-.035-.164-.041-.173-.035-.168-.042-.173-.041L923,277.48l-.171-.042-.176-.044-.171-.042-.177-.048-.021,0-.573-6.453.044.021.2.1.2.094.2.1.2.09.2.092.187.09.2.083.187.086.189.078.184.086.182.074.187.076.175.072.18.074.175.069.173.071.171.065.171.065.166.06.168.057.166.058.164.056.157.051.161.053.159.051.153.046.305.09ZM818.35,278.862l-11.374-16.635-3.559,15.406h-6.289l7.187-30.393,14.035,20.621,14.039-20.621,7.187,30.393h-6.289l-3.563-15.406Zm-84.828-1.249,17.773-30.622,17.771,30.622h-7.528L751.295,259.96,741.05,277.613Zm151.4,0L902.7,246.99l17.773,30.622h-7.528L902.7,259.96l-10.243,17.653Z" transform="translate(-710.985 -246.904)" fill="#2b4a81" fill-rule="evenodd"/>
    </g>
    <g id="Grupo_1548" data-name="Grupo 1548" transform="translate(881.201 301.444)">
      <path id="Caminho_1074" data-name="Caminho 1074" d="M818.434,269.377v11.466h-1.579V271.8l-3.924,5.138-3.9-5.138v9.042h-1.583V269.377h1.72l3.763,4.952,3.783-4.952Z" transform="translate(-807.448 -269.273)" fill="#80391b"/>
      <path id="Caminho_1075" data-name="Caminho 1075" d="M816.449,270.989h-1.685v-1.671h1.685Zm-1.632,1.322H816.4v8.578h-1.583Z" transform="translate(-801.855 -269.318)" fill="#80391b"/>
      <path id="Caminho_1076" data-name="Caminho 1076" d="M816.79,279.658v-7.836a8.313,8.313,0,0,1,3.663-.895c2.163,0,3.451,1.2,3.451,3.194v5.537h-1.578v-5.636c0-.808-.224-1.638-1.945-1.638a6.734,6.734,0,0,0-2.01.311v6.963Z" transform="translate(-800.306 -268.088)" fill="#80391b"/>
      <path id="Caminho_1077" data-name="Caminho 1077" d="M828.551,277.811v1.426a7.68,7.68,0,0,1-3.042.568c-1.807,0-3.956-.755-3.956-4.33,0-1.119,0-4.538,3.8-4.538,2.3,0,3.783,1.632,3.783,4.143a11.634,11.634,0,0,1-.055,1.186h-5.911a2.184,2.184,0,0,0,2.428,2.179,6.3,6.3,0,0,0,2.954-.633m-5.4-2.975h4.4c-.083-1-.5-2.49-2.2-2.49-1.442,0-2.059.649-2.2,2.49" transform="translate(-796.665 -268.081)" fill="#80391b"/>
      <path id="Caminho_1078" data-name="Caminho 1078" d="M828.091,279.651h-1.579v-7.858a10.93,10.93,0,0,1,4.179-.858v1.442a11.436,11.436,0,0,0-2.6.362Z" transform="translate(-792.873 -268.081)" fill="#80391b"/>
      <path id="Caminho_1079" data-name="Caminho 1079" d="M836.207,274.529V277c0,.655-.252,2.784-3.555,2.784-3.369,0-3.626-2.163-3.626-2.837,0-1.7,1.509-2.716,4.041-2.716a11.089,11.089,0,0,1,1.562.1c-.067-1.413-.688-2.031-2.37-2.031a7.285,7.285,0,0,0-2.375.432V271.4a7.163,7.163,0,0,1,2.594-.464c2.391,0,3.73,1.269,3.73,3.593m-1.579,1.066a9.222,9.222,0,0,0-1.5-.1c-.738,0-2.543.224-2.543,1.442,0,.983.7,1.463,2.063,1.463,1.306,0,1.976-.464,1.976-1.408Z" transform="translate(-790.952 -268.081)" fill="#80391b"/>
      <path id="Caminho_1080" data-name="Caminho 1080" d="M835.255,275.349c0,2.652,1.218,3.009,2.523,3.009a5.54,5.54,0,0,0,2.391-.547v1.5a7.022,7.022,0,0,1-1.872.443l-1.17,2.133h-1.581l1.528-2.133c-2.25-.2-3.473-1.749-3.473-4.4,0-2.852,1.426-4.413,4.041-4.413a6.87,6.87,0,0,1,2.527.48v1.5a5.571,5.571,0,0,0-2.391-.566c-1.306,0-2.523.376-2.523,3" transform="translate(-787.452 -268.081)" fill="#80391b"/>
      <path id="Caminho_1081" data-name="Caminho 1081" d="M844.878,275.712v2.474c0,.655-.24,2.784-3.538,2.784-3.369,0-3.626-2.163-3.626-2.837,0-1.7,1.512-2.716,4.036-2.716a11.108,11.108,0,0,1,1.567.1c-.071-1.413-.688-2.031-2.375-2.031a7.279,7.279,0,0,0-2.37.432v-1.339a7.851,7.851,0,0,1,2.594-.464c2.391,0,3.713,1.269,3.713,3.593m-6.033-4.558v-1.136c1.752-2.042,3.488,1.72,5.23-.323v1.131c-1.742,2.049-3.478-1.715-5.23.328m4.471,5.624a9.229,9.229,0,0,0-1.5-.1c-.738,0-2.545.224-2.545,1.442,0,.983.706,1.463,2.064,1.463,1.306,0,1.976-.464,1.976-1.408Z" transform="translate(-784.309 -269.264)" fill="#80391b"/>
      <path id="Caminho_1082" data-name="Caminho 1082" d="M850.314,275.365c0,3.642-2.2,4.417-4.041,4.417s-4.041-.775-4.041-4.417,2.2-4.422,4.041-4.422,4.041.78,4.041,4.422m-1.584,0c0-2.664-1.168-3.024-2.456-3.024s-2.462.36-2.462,3.024,1.173,3.024,2.462,3.024,2.456-.36,2.456-3.024" transform="translate(-780.854 -268.076)" fill="#80391b"/>
    </g>
  </g>
</svg>
