<svg xmlns="http://www.w3.org/2000/svg" xmlns:xlink="http://www.w3.org/1999/xlink" width="169.932" height="78.114" viewBox="0 0 169.932 78.114">
  <defs>
    <clipPath id="clip-path">
      <path id="Caminho_40" data-name="Caminho 40" d="M669.341,244.433C645.52,265.992,643.9,283.528,665.72,283.6c10.594.031,24.77-4.064,39.279-10.752-.435-.054-.88-.1-1.338-.144-10.515,4.53-20.463,7.354-28.112,7.617-18.551.646-16.38-13.867,4.591-32.531s52.814-34.327,71.364-34.973c13.573-.471,16.16,7.171,8.361,18.617h.8c11.135-15.061,8.447-25.864-8.672-25.917h-.122c-21.836,0-58.757,17.4-82.535,38.92" transform="translate(-650.358 -205.513)" fill="none"/>
    </clipPath>
    <linearGradient id="linear-gradient" x1="-3.953" y1="3.071" x2="-3.947" y2="3.071" gradientUnits="objectBoundingBox">
      <stop offset="0" stop-color="#d7d6d8"/>
      <stop offset="0.5" stop-color="#fff"/>
      <stop offset="1" stop-color="#d7d6d8"/>
    </linearGradient>
    <clipPath id="clip-path-2">
      <path id="Caminho_41" data-name="Caminho 41" d="M698.4,281.005l-8.395,8.239c18.466-4.619,25.107-2.964,32.465-1.308,6.7,1.508,13.994,3.016,31.355-.214l8.22-8.069c-19.394,3.932-27.1,2.344-34.144.757a51.544,51.544,0,0,0-12.471-1.7,76.393,76.393,0,0,0-17.029,2.3m9.869-9.685L700,279.441c15.436-3.405,21.613-1.875,28.4-.345,7.174,1.617,15.03,3.235,35.218-.976l8.3-8.153c-22.327,4.979-30.576,3.288-38.081,1.6a51.586,51.586,0,0,0-12.471-1.7,68.1,68.1,0,0,0-13.094,1.458" transform="translate(-690.008 -269.862)" fill="none"/>
    </clipPath>
    <linearGradient id="linear-gradient-2" x1="-11.485" y1="2.626" x2="-11.469" y2="2.626" gradientUnits="objectBoundingBox">
      <stop offset="0" stop-color="#2391cf"/>
      <stop offset="0.25" stop-color="#2391cf"/>
      <stop offset="0.254" stop-color="#2491cf"/>
      <stop offset="0.489" stop-color="#63a9da"/>
      <stop offset="0.661" stop-color="#8bb9e2"/>
      <stop offset="0.75" stop-color="#9bbfe5"/>
      <stop offset="1" stop-color="#9bbfe5"/>
    </linearGradient>
    <clipPath id="clip-path-3">
      <rect id="Retângulo_4" data-name="Retângulo 4" width="169.932" height="78.114" fill="none"/>
    </clipPath>
  </defs>
  <g id="Grupo_84" data-name="Grupo 84" transform="translate(-634.562 -205.512)">
    <g id="Grupo_79" data-name="Grupo 79" transform="translate(646.999 205.513)">
      <g id="Grupo_78" data-name="Grupo 78" transform="translate(0)" clip-path="url(#clip-path)">
        <rect id="Retângulo_2" data-name="Retângulo 2" width="127.906" height="78.115" transform="translate(-6.46 -0.002)" fill="url(#linear-gradient)"/>
      </g>
    </g>
    <g id="Grupo_81" data-name="Grupo 81" transform="translate(678.217 256.177)">
      <g id="Grupo_80" data-name="Grupo 80" transform="translate(0)" clip-path="url(#clip-path-2)">
        <rect id="Retângulo_3" data-name="Retângulo 3" width="48.744" height="84.07" transform="translate(-6.988 18.444) rotate(-69.249)" fill="url(#linear-gradient-2)"/>
      </g>
    </g>
    <g id="Grupo_83" data-name="Grupo 83" transform="translate(634.562 205.512)">
      <g id="Grupo_82" data-name="Grupo 82" clip-path="url(#clip-path-3)">
        <path id="Caminho_42" data-name="Caminho 42" d="M640.142,256.858h2.838l.219-.006.217-.009.213-.017.206-.02.2-.031.2-.037.19-.042.189-.05.183-.055.176-.065.172-.07.167-.08.162-.087.157-.091.15-.1.147-.107.139-.117.131-.121.121-.127.114-.136.107-.141.1-.146.087-.151.079-.161.068-.165.061-.168.051-.175.042-.176.032-.183.022-.185.013-.188.006-.191-.006-.189-.013-.185-.022-.18-.032-.18-.04-.172-.05-.17-.058-.164-.07-.16-.079-.154-.087-.148-.1-.142-.105-.135-.113-.129-.12-.123-.128-.115-.137-.109-.142-.1-.147-.094-.158-.088-.16-.08-.167-.072L645,250.5l-.176-.06-.183-.051-.188-.046-.193-.04-.2-.033-.2-.027-.21-.021-.216-.014-.22-.009-.224,0h-2.838Zm0-9.859h2.364l.213,0,.211-.009.205-.014.2-.02.2-.025.191-.031.187-.036.182-.043.178-.049.17-.057.168-.06.161-.069.158-.074.151-.082.146-.087.143-.1.135-.1.128-.107.119-.117.113-.121.1-.128.1-.135.084-.142.08-.146.071-.151.058-.159.05-.161.043-.165.031-.169.023-.172.013-.176,0-.176,0-.18-.013-.172-.021-.17-.03-.165-.04-.163-.048-.157-.057-.154-.067-.146-.076-.143-.087-.135-.093-.129-.1-.12-.112-.115-.119-.106-.124-.1-.134-.092-.138-.082-.146-.076-.15-.072-.159-.063-.165-.057-.172-.053-.179-.048-.185-.041-.191-.035-.2-.031-.207-.026-.213-.021-.22-.017-.228-.011-.232-.007-.24,0h-2.229Zm-5.183,12.866v-21.6h7.722l.287,0,.279,0,.275.006.271.009.266.013.261.016.257.017.251.021.249.023.24.026.239.028.234.032.228.034.225.038.218.039.215.042.21.045.206.048.2.05.2.052.191.055.186.059.181.059.176.063.172.065.165.068.164.069.157.073.154.075.149.077.144.079.139.082.135.083.129.087.125.088.12.09.114.093.111.1.106.1.1.1.1.1.093.1.089.1.083.108.08.109.075.111.072.115.068.116.064.118.057.122.057.124.051.128.046.128.045.132.039.134.034.138.031.141.028.142.024.148.018.149.015.152.011.157.006.158,0,.16,0,.194-.013.19-.018.183-.026.18-.034.174-.042.171-.049.165-.056.162-.061.157-.069.155-.078.15-.087.15-.092.144-.1.142-.106.139-.116.135-.125.131-.13.128-.142.126-.149.123-.157.12-.168.117-.176.113a13.674,13.674,0,0,1-4.016,1.519,14.309,14.309,0,0,1,4,1.024l.109.054.11.057.105.058.1.06.1.062.1.062.1.064.1.067.1.069.091.07.091.072.087.073.087.074.084.077.083.079.08.08.079.083.08.084.075.083.071.084.071.087.066.085.063.087.061.09.061.09.055.09.054.092.051.091.049.1.046.093.045.1.043.1.041.1.035.1.034.1.034.1.029.1.027.1.027.106.023.111.02.106.019.111.016.11.013.114.011.115.009.114.006.117,0,.121,0,.12,0,.188-.008.183-.014.181-.016.177-.024.175-.027.168-.032.168-.039.161-.043.162-.046.157-.053.151-.059.151-.061.146-.068.146-.072.142-.076.137-.082.136-.087.135-.092.128-.1.128-.1.125-.109.124-.113.121-.117.115-.125.117-.128.116-.135.108-.14.108-.147.107-.15.1-.157.1-.164.1-.168.1-.173.091-.181.091-.184.088-.192.084-.195.081-.2.077-.207.078-.213.073-.218.068-.226.067-.229.066-.237.06-.24.06-.248.053-.252.053-.259.046-.263.047-.27.043-.276.04-.279.035-.287.036-.291.029-.3.028-.3.022-.309.021-.314.018-.32.015-.326.01-.331.007-.336,0-.345,0Zm45.989-21.6v12.123l.006.191,0,.19.008.184.013.183.015.181.019.177.021.175.021.174.026.169.028.167.031.165.034.161.037.159.042.157.042.153.046.153.05.147.05.146.054.142.059.141.061.136.064.136.065.132.07.128.074.127.075.124.079.119.083.118.086.112.088.113.091.1.092.1.1.1.1.1.1.094.106.092.109.088.112.085.115.083.12.077.119.075.124.072.127.068.128.065.133.06.132.057.136.055.139.05.14.048.142.042.148.043.148.035.15.033.154.03.155.028.156.024.161.018.161.02.165.013.168.012.167.008.172,0h.34l.165,0,.165-.008.16-.01.16-.013.157-.015.155-.02.153-.021.153-.025.149-.028.146-.033.142-.032.144-.038.139-.041.139-.044.136-.046.133-.05.133-.054.129-.055.127-.06.124-.063.123-.065.119-.072.119-.07.113-.076.114-.08.109-.082.109-.083.1-.09.1-.091.1-.093.1-.1.1-.1.09-.1.087-.1.084-.109.081-.109.078-.114.076-.12.071-.117.068-.121.065-.123.064-.128.059-.128.058-.129.053-.135.05-.135.049-.139.044-.141.042-.144.039-.142.037-.148.031-.15.03-.151.027-.154.024-.157.022-.159.017-.16.015-.164.014-.165.008-.168.007-.169,0-.172,0-.172V238.264h4.611v12.471l0,.3-.008.291-.015.286-.019.282-.025.276-.03.273-.037.268-.042.263-.047.259-.054.254-.057.249-.064.246-.068.243-.074.236-.08.232-.085.228-.091.221-.1.22-.1.216-.1.211-.113.209-.116.2-.123.2-.128.193-.134.19-.139.187-.145.184-.147.178-.157.174-.161.172-.167.167-.172.163-.176.159-.183.153-.185.151-.189.143-.193.139-.2.135-.2.127-.2.125-.212.119-.217.113-.222.109-.223.1-.23.1-.235.094-.239.09-.244.086-.246.078-.254.073-.255.07-.262.063-.268.06-.271.052-.275.05-.283.043-.284.04-.291.034-.293.029-.3.021-.3.018-.309.015-.313.007-.319,0-.322,0-.317-.007-.313-.015-.306-.018-.3-.021-.3-.029-.293-.031-.288-.041-.281-.043-.279-.048-.273-.054-.271-.057-.261-.066-.261-.068-.254-.074-.248-.077-.246-.086-.24-.088-.235-.093-.23-.1-.228-.1-.219-.108-.218-.113-.21-.118-.209-.123-.2-.127-.2-.134-.191-.137-.192-.141-.184-.15-.18-.152-.176-.158-.17-.161-.168-.165-.159-.171-.154-.173-.15-.179-.144-.181-.137-.185-.132-.189-.128-.193-.121-.2-.116-.2-.11-.206-.107-.209-.1-.216-.094-.219-.091-.224-.082-.226-.08-.232-.073-.235-.07-.243-.062-.244-.058-.251-.053-.256-.048-.256-.04-.264-.036-.268-.03-.275-.024-.276-.02-.282-.014-.287-.009-.291,0-.3v-12.5Zm49.656,0h5.3v21.6h-5.3Zm7.7,21.6.007-22.252,17.28,13.745V238.264h4.8v22.323L743.106,246.9v12.963Zm53.906-3.419.223.057.224.056.223.046.221.045.221.04.221.036.219.031.222.027.216.024.22.018.219.017.217.009.216.008.218,0,.217,0,.216-.006.209-.015.2-.016.2-.024.2-.03.191-.034.188-.041.181-.048.18-.05.172-.057.169-.065.166-.07.157-.073.155-.081.146-.088.145-.091.136-.1.13-.1.121-.109.113-.111.106-.117.1-.123.088-.131.078-.132.07-.139.057-.143.05-.146.036-.15.025-.154.017-.155,0-.157,0-.128-.017-.13-.025-.129-.035-.125-.043-.126-.052-.123-.06-.12-.066-.118-.076-.117-.08-.112-.088-.116-.094-.11-.1-.111-.107-.109-.114-.109-.12-.107-.127-.109L798.18,252l-.139-.107-.147-.107-.15-.109-.161-.106-.165-.109-.17-.107-.18-.108-.185-.108-.191-.109-.2-.11-.206-.109-.21-.11-.219-.109-.225-.11-.141-.069-.131-.064-.238-.116-.105-.053-.1-.048-.087-.043-.087-.046-1.814-.861-.159-.078-.158-.077-.151-.078-.151-.08-.147-.079-.146-.08-.143-.079-.139-.083-.137-.081-.134-.082-.132-.083-.129-.082-.124-.083-.124-.083-.12-.085-.118-.084-.115-.087-.111-.086-.111-.085-.1-.086-.1-.089-.1-.088-.1-.086-.1-.089-.092-.089-.09-.088-.089-.089-.083-.091-.084-.091-.08-.09-.076-.091-.076-.092-.071-.091-.071-.093-.065-.093-.065-.094L788.87,246l-.061-.1-.057-.094-.054-.1-.054-.1-.049-.1-.047-.1-.048-.1-.043-.1-.041-.1-.039-.1-.036-.1-.035-.1-.035-.1-.028-.105-.027-.1-.027-.1-.025-.106-.02-.107-.017-.108-.016-.108-.016-.109-.013-.112-.009-.111-.009-.112-.006-.113,0-.114,0-.113,0-.155.008-.154.01-.15.017-.146.018-.147.024-.145.028-.142.031-.139.035-.139.042-.135.042-.133.051-.134.054-.13.055-.13.061-.127.066-.125.071-.125.075-.123.079-.12.083-.12.088-.119.091-.116.094-.116.1-.115.108-.114.109-.109.117-.111.12-.108.124-.107.13-.106.136-.105.14-.1.142-.1.147-.1.149-.094.152-.091.153-.088.158-.083.158-.082.164-.08.164-.075.169-.072.169-.07.175-.065.174-.063.18-.06.182-.056.185-.054.188-.05.191-.048.194-.044.2-.039.2-.039.2-.034.205-.031.209-.028.212-.026.213-.02.218-.018.219-.014.224-.011.226-.009.228,0,.236,0h.17l.172,0,.177,0,.176.008.18.01.183.013.182.013.187.017.19.019.188.02.191.023.195.025.2.027.2.029.2.031.2.034.1.017.1.017.1.02.106.018.105.022.1.019.107.021.107.023.106.021.111.024.108.023.112.024.109.026.113.024.11.026.115.028.113.026.114.028.117.029.116.028.117.029.117.031.117.031.119.034.12.031.122.032.119.031.125.035.1.028v4.014l-.049-.025-.12-.058-.121-.057-.119-.057-.121-.057-.118-.054-.12-.055-.117-.052-.118-.052-.119-.053-.118-.05-.114-.05-.117-.049-.117-.048-.117-.046-.116-.047-.115-.044-.113-.044-.115-.044-.115-.043-.115-.043-.113-.039-.115-.041-.112-.038-.112-.038-.114-.037-.222-.072-.219-.066-.216-.061-.209-.057-.21-.053-.2-.047-.2-.044-.2-.039-.195-.036-.188-.03-.187-.026-.183-.021-.181-.016-.176-.012-.173-.006-.168,0-.182,0-.173.006-.172.009-.168.017-.165.017-.16.024-.158.028-.154.032-.149.037-.144.043-.143.046-.137.052-.135.057-.13.063-.126.067-.124.074-.118.08-.109.083-.106.09-.1.092-.092.1-.087.1-.079.109-.071.112-.064.119-.053.123-.047.126-.038.128-.03.133-.02.133-.012.135,0,.143.01.194.029.2.048.194.068.191.087.182.1.177.118.169.132.161.079.083.076.076.08.074.083.072.084.071.091.071.093.069.1.067.1.065.1.065.1.062.11.063.114.061.116.058.121.057.116.055,3.137,1.473.24.114.236.113.231.113.226.112.218.111.214.109.21.109.2.109.2.11.194.106.188.108.184.106.178.106.175.1.167.1.163.1.157.1.153.1.148.1.141.1.136.1.131.1.127.1.121.1.114.1.111.094.1.094.1.094.093.091.09.091.082.09.08.088.075.088.073.091.071.09.068.092.066.092.061.094.061.1.058.094.055.1.053.1.051.1.05.1.046.1.043.1.041.1.04.1.038.1.035.106.032.105.03.108.025.109.025.111.024.109.02.114.018.113.016.115.013.117.011.118.009.117.006.121,0,.121,0,.123,0,.193-.006.189-.013.185-.017.184-.023.181-.027.179-.029.176-.036.173-.042.171-.045.168-.051.166-.053.163-.06.159-.065.158-.069.157-.074.154-.077.15-.083.149-.089.148-.091.145-.1.143-.1.14-.108.139-.111.139-.117.131-.125.135-.125.13-.134.128-.136.128-.144.124-.149.123-.15.12-.159.117-.161.114-.165.112-.168.1-.171.1-.175.1-.178.1-.18.091-.183.089-.188.083-.192.083-.2.076-.2.073-.2.07-.2.068-.208.061-.213.058-.217.057-.219.051-.221.047-.227.044-.231.039-.235.037-.236.033-.24.029-.245.024-.25.02-.251.018-.255.013-.258.011-.262,0-.268,0-.183,0-.183,0-.187-.006-.188-.008-.19-.009-.193-.012-.2-.013-.2-.013-.2-.019-.2-.02-.2-.021-.207-.022-.206-.025-.211-.029-.213-.029-.215-.032-.106-.015-.109-.017-.108-.018-.109-.02-.113-.017-.109-.019-.112-.021-.113-.02-.113-.022-.113-.023-.115-.023-.115-.022-.117-.024-.117-.024-.119-.025-.119-.024-.118-.026-.12-.025-.121-.028-.119-.027-.124-.028-.122-.03-.124-.029-.124-.031-.127-.031-.125-.031-.128-.031-.126-.032-.126-.034-.018,0-.416-4.695.031.013.145.073.146.069.146.07.142.066.142.064.14.066.139.063.139.061.137.057.134.061.133.055.132.055.129.054.129.054.129.049.126.05.125.048.124.048.123.043.12.044.12.042.118.04.117.039.115.037.115.036.114.035.222.065Zm-79.1,4.314-8.279-12.107-2.593,11.212h-4.578l5.232-22.123,10.218,15.014,10.217-15.014,5.233,22.123h-4.577L721.4,248.653Zm-61.751-.91,12.94-22.291,12.937,22.291h-5.481L664.3,247l-7.458,12.847Zm110.21,0,12.937-22.291,12.94,22.291h-5.481L774.512,247l-7.455,12.847Z" transform="translate(-634.646 -212.314)" fill="#2a4a80" fill-rule="evenodd"/>
        <path id="Caminho_43" data-name="Caminho 43" d="M640.676,226.077v3.689a6.083,6.083,0,0,1-2.668.631c-1.575,0-3.446-.654-3.446-3.778s1.872-3.789,3.446-3.789a6.669,6.669,0,0,1,2.435.5v1.219a5.666,5.666,0,0,0-2.3-.532c-1.164,0-2.249.321-2.249,2.593s1.086,2.6,2.249,2.6a4.952,4.952,0,0,0,1.307-.188v-1.772h-1.739v-1.175Z" transform="translate(-634.562 -209.195)" fill="#2a4a80"/>
        <path id="Caminho_44" data-name="Caminho 44" d="M646.453,225.2v1.152a5.524,5.524,0,0,0-1.43.189v4.276h-1.328v-5.03a7.478,7.478,0,0,1,2.758-.587" transform="translate(-636.504 -209.698)" fill="#2a4a80"/>
        <path id="Caminho_45" data-name="Caminho 45" d="M653.026,225.307v3.025a2.5,2.5,0,1,1-5,0v-3.025h1.34v3.2c0,.886.333,1.252,1.153,1.252s1.162-.366,1.162-1.252v-3.2Z" transform="translate(-637.426 -209.722)" fill="#2a4a80"/>
        <path id="Caminho_46" data-name="Caminho 46" d="M660.311,228.122c0,1.805-.919,2.8-2.569,2.8a4.123,4.123,0,0,1-.909-.1v2.038H655.5v-5.794c0-.9.609-1.861,2.326-1.861.742,0,2.481.289,2.481,2.914m-1.34.067c0-1.263-.288-1.839-1.141-1.839-.587,0-1,.133-1,.6v2.88a5.5,5.5,0,0,0,.819.066c.8,0,1.319-.365,1.319-1.705" transform="translate(-639.016 -209.701)" fill="#2a4a80"/>
        <path id="Caminho_47" data-name="Caminho 47" d="M667.558,228.056c0,1.838-.93,2.847-2.615,2.847s-2.614-1.009-2.614-2.847.931-2.848,2.614-2.848,2.615,1.009,2.615,2.848m-1.33,0c0-1.462-.5-1.75-1.285-1.75s-1.285.288-1.285,1.75.5,1.75,1.285,1.75,1.285-.288,1.285-1.75" transform="translate(-640.467 -209.701)" fill="#2a4a80"/>
      </g>
    </g>
  </g>
</svg>
